<?xml version="1.0" encoding="UTF-8" standalone="no"?>
<!DOCTYPE svg PUBLIC "-//W3C//DTD SVG 1.1//EN"
 "http://www.w3.org/Graphics/SVG/1.1/DTD/svg11.dtd">
<!-- Generated by graphviz version 2.38.0 (20140413.2041)
 -->
<!-- Title: controllers_diagram Pages: 1 -->
<svg width="652pt" height="765pt"
 viewBox="0.00 0.00 652.27 765.00" xmlns="http://www.w3.org/2000/svg" xmlns:xlink="http://www.w3.org/1999/xlink">
<g id="graph0" class="graph" transform="scale(1 1) rotate(0) translate(256.331 509.5)">
<title>controllers_diagram</title>
<polygon fill="none" stroke="none" points="-256.331,255.5 -256.331,-509.5 395.941,-509.5 395.941,255.5 -256.331,255.5"/>
<!-- _diagram_info -->
<g id="node1" class="node"><title>_diagram_info</title>
<text text-anchor="start" x="-207.688" y="156.9" font-family="Times,serif" font-size="13.00">Controllers diagram</text>
<text text-anchor="start" x="-207.688" y="169.9" font-family="Times,serif" font-size="13.00">Date: Sep 01 2016 &#45; 23:15</text>
<text text-anchor="start" x="-207.688" y="182.9" font-family="Times,serif" font-size="13.00">Migration version: 20160803125755</text>
<text text-anchor="start" x="-207.688" y="195.9" font-family="Times,serif" font-size="13.00">Generated by RailRoady 1.5.1</text>
<text text-anchor="start" x="-207.688" y="208.9" font-family="Times,serif" font-size="13.00">http://railroady.prestonlee.com</text>
</g>
<!-- ApplicationController -->
<g id="node2" class="node"><title>ApplicationController</title>
<path fill="none" stroke="black" d="M191.852,251C191.852,251 312.148,251 312.148,251 318.148,251 324.148,245 324.148,239 324.148,239 324.148,173 324.148,173 324.148,167 318.148,161 312.148,161 312.148,161 191.852,161 191.852,161 185.852,161 179.852,167 179.852,173 179.852,173 179.852,239 179.852,239 179.852,245 185.852,251 191.852,251"/>
<text text-anchor="middle" x="252" y="176.2" font-family="Times,serif" font-size="14.00">ApplicationController</text>
<polyline fill="none" stroke="black" points="179.852,183 324.148,183 "/>
<text text-anchor="start" x="187.852" y="198.2" font-family="Times,serif" font-size="14.00">after_sign_in_path_for</text>
<polyline fill="none" stroke="black" points="179.852,205 324.148,205 "/>
<polyline fill="none" stroke="black" points="179.852,229 324.148,229 "/>
<text text-anchor="start" x="187.852" y="244.2" font-family="Times,serif" font-size="14.00">_layout</text>
</g>
<!-- AqmeshChannelsController -->
<g id="node3" class="node"><title>AqmeshChannelsController</title>
<path fill="none" stroke="black" d="M-78.1553,107C-78.1553,107 70.1553,107 70.1553,107 76.1553,107 82.1553,101 82.1553,95 82.1553,95 82.1553,-97 82.1553,-97 82.1553,-103 76.1553,-109 70.1553,-109 70.1553,-109 -78.1553,-109 -78.1553,-109 -84.1553,-109 -90.1553,-103 -90.1553,-97 -90.1553,-97 -90.1553,95 -90.1553,95 -90.1553,101 -84.1553,107 -78.1553,107"/>
<text text-anchor="middle" x="-4" y="-93.8" font-family="Times,serif" font-size="14.00">AqmeshChannelsController</text>
<polyline fill="none" stroke="black" points="-90.1553,-87 82.1553,-87 "/>
<text text-anchor="start" x="-82.1553" y="-71.8" font-family="Times,serif" font-size="14.00">update</text>
<text text-anchor="start" x="-82.1553" y="-57.8" font-family="Times,serif" font-size="14.00">destroy</text>
<text text-anchor="start" x="-82.1553" y="-43.8" font-family="Times,serif" font-size="14.00">edit</text>
<text text-anchor="start" x="-82.1553" y="-29.8" font-family="Times,serif" font-size="14.00">index</text>
<text text-anchor="start" x="-82.1553" y="-15.8" font-family="Times,serif" font-size="14.00">latest_final</text>
<text text-anchor="start" x="-82.1553" y="-1.8" font-family="Times,serif" font-size="14.00">new</text>
<text text-anchor="start" x="-82.1553" y="12.2" font-family="Times,serif" font-size="14.00">show</text>
<text text-anchor="start" x="-82.1553" y="26.2" font-family="Times,serif" font-size="14.00">create</text>
<polyline fill="none" stroke="black" points="-90.1553,33 82.1553,33 "/>
<polyline fill="none" stroke="black" points="-90.1553,57 82.1553,57 "/>
<text text-anchor="start" x="-82.1553" y="72.2" font-family="Times,serif" font-size="14.00">_layout</text>
<text text-anchor="start" x="-82.1553" y="86.2" font-family="Times,serif" font-size="14.00">aqmesh_channel_params</text>
<text text-anchor="start" x="-82.1553" y="100.2" font-family="Times,serif" font-size="14.00">set_aqmesh_channel</text>
</g>
<!-- AqmeshDataController -->
<g id="node4" class="node"><title>AqmeshDataController</title>
<path fill="none" stroke="black" d="M137.907,125C137.907,125 262.093,125 262.093,125 268.093,125 274.093,119 274.093,113 274.093,113 274.093,-79 274.093,-79 274.093,-85 268.093,-91 262.093,-91 262.093,-91 137.907,-91 137.907,-91 131.907,-91 125.907,-85 125.907,-79 125.907,-79 125.907,113 125.907,113 125.907,119 131.907,125 137.907,125"/>
<text text-anchor="middle" x="200" y="-75.8" font-family="Times,serif" font-size="14.00">AqmeshDataController</text>
<polyline fill="none" stroke="black" points="125.907,-69 274.093,-69 "/>
<text text-anchor="start" x="133.907" y="-53.8" font-family="Times,serif" font-size="14.00">update</text>
<text text-anchor="start" x="133.907" y="-39.8" font-family="Times,serif" font-size="14.00">destroy</text>
<text text-anchor="start" x="133.907" y="-25.8" font-family="Times,serif" font-size="14.00">edit</text>
<text text-anchor="start" x="133.907" y="-11.8" font-family="Times,serif" font-size="14.00">index</text>
<text text-anchor="start" x="133.907" y="2.2" font-family="Times,serif" font-size="14.00">latest_timestamp</text>
<text text-anchor="start" x="133.907" y="16.2" font-family="Times,serif" font-size="14.00">new</text>
<text text-anchor="start" x="133.907" y="30.2" font-family="Times,serif" font-size="14.00">show</text>
<text text-anchor="start" x="133.907" y="44.2" font-family="Times,serif" font-size="14.00">create</text>
<polyline fill="none" stroke="black" points="125.907,51 274.093,51 "/>
<polyline fill="none" stroke="black" points="125.907,75 274.093,75 "/>
<text text-anchor="start" x="133.907" y="90.2" font-family="Times,serif" font-size="14.00">_layout</text>
<text text-anchor="start" x="133.907" y="104.2" font-family="Times,serif" font-size="14.00">aqmesh_datum_params</text>
<text text-anchor="start" x="133.907" y="118.2" font-family="Times,serif" font-size="14.00">set_aqmesh_datum</text>
</g>
<!-- DashboardsController -->
<g id="node5" class="node"><title>DashboardsController</title>
<path fill="none" stroke="black" d="M137.71,-127C137.71,-127 344.29,-127 344.29,-127 350.29,-127 356.29,-133 356.29,-139 356.29,-139 356.29,-247 356.29,-247 356.29,-253 350.29,-259 344.29,-259 344.29,-259 137.71,-259 137.71,-259 131.71,-259 125.71,-253 125.71,-247 125.71,-247 125.71,-139 125.71,-139 125.71,-133 131.71,-127 137.71,-127"/>
<text text-anchor="middle" x="241" y="-243.8" font-family="Times,serif" font-size="14.00">DashboardsController</text>
<polyline fill="none" stroke="black" points="125.71,-237 356.29,-237 "/>
<text text-anchor="start" x="133.71" y="-221.8" font-family="Times,serif" font-size="14.00">index</text>
<text text-anchor="start" x="133.71" y="-207.8" font-family="Times,serif" font-size="14.00">latest_chart_channel_component_data</text>
<text text-anchor="start" x="133.71" y="-193.8" font-family="Times,serif" font-size="14.00">latest_chart_data</text>
<polyline fill="none" stroke="black" points="125.71,-187 356.29,-187 "/>
<polyline fill="none" stroke="black" points="125.71,-163 356.29,-163 "/>
<text text-anchor="start" x="133.71" y="-147.8" font-family="Times,serif" font-size="14.00">_layout</text>
<text text-anchor="start" x="133.71" y="-133.8" font-family="Times,serif" font-size="14.00">set_chart_data</text>
</g>
<!-- PagesController -->
<g id="node6" class="node"><title>PagesController</title>
<path fill="none" stroke="black" d="M155.896,-289C155.896,-289 238.104,-289 238.104,-289 244.104,-289 250.104,-295 250.104,-301 250.104,-301 250.104,-369 250.104,-369 250.104,-375 244.104,-381 238.104,-381 238.104,-381 155.896,-381 155.896,-381 149.896,-381 143.896,-375 143.896,-369 143.896,-369 143.896,-301 143.896,-301 143.896,-295 149.896,-289 155.896,-289"/>
<text text-anchor="middle" x="197" y="-365.8" font-family="Times,serif" font-size="14.00">PagesController</text>
<polyline fill="none" stroke="black" points="143.896,-359 250.104,-359 "/>
<polyline fill="none" stroke="black" points="143.896,-335 250.104,-335 "/>
<polyline fill="none" stroke="black" points="143.896,-311 250.104,-311 "/>
<text text-anchor="start" x="151.896" y="-295.8" font-family="Times,serif" font-size="14.00">_layout</text>
</g>
<!-- PublicvarsController -->
<g id="node7" class="node"><title>PublicvarsController</title>
<path fill="none" stroke="black" d="M29.6758,251C29.6758,251 138.324,251 138.324,251 144.324,251 150.324,245 150.324,239 150.324,239 150.324,173 150.324,173 150.324,167 144.324,161 138.324,161 138.324,161 29.6758,161 29.6758,161 23.6758,161 17.6758,167 17.6758,173 17.6758,173 17.6758,239 17.6758,239 17.6758,245 23.6758,251 29.6758,251"/>
<text text-anchor="middle" x="84" y="176.2" font-family="Times,serif" font-size="14.00">PublicvarsController</text>
<polyline fill="none" stroke="black" points="17.6758,183 150.324,183 "/>
<text text-anchor="start" x="25.6758" y="198.2" font-family="Times,serif" font-size="14.00">latest</text>
<polyline fill="none" stroke="black" points="17.6758,205 150.324,205 "/>
<polyline fill="none" stroke="black" points="17.6758,229 150.324,229 "/>
<text text-anchor="start" x="25.6758" y="244.2" font-family="Times,serif" font-size="14.00">_layout</text>
</g>
<!-- SensorsController -->
<g id="node8" class="node"><title>SensorsController</title>
<path fill="none" stroke="black" d="M-5.55176,-145C-5.55176,-145 87.5518,-145 87.5518,-145 93.5518,-145 99.5518,-151 99.5518,-157 99.5518,-157 99.5518,-349 99.5518,-349 99.5518,-355 93.5518,-361 87.5518,-361 87.5518,-361 -5.55176,-361 -5.55176,-361 -11.5518,-361 -17.5518,-355 -17.5518,-349 -17.5518,-349 -17.5518,-157 -17.5518,-157 -17.5518,-151 -11.5518,-145 -5.55176,-145"/>
<text text-anchor="middle" x="41" y="-345.8" font-family="Times,serif" font-size="14.00">SensorsController</text>
<polyline fill="none" stroke="black" points="-17.5518,-339 99.5518,-339 "/>
<text text-anchor="start" x="-9.55176" y="-323.8" font-family="Times,serif" font-size="14.00">update</text>
<text text-anchor="start" x="-9.55176" y="-309.8" font-family="Times,serif" font-size="14.00">destroy</text>
<text text-anchor="start" x="-9.55176" y="-295.8" font-family="Times,serif" font-size="14.00">edit</text>
<text text-anchor="start" x="-9.55176" y="-281.8" font-family="Times,serif" font-size="14.00">grab</text>
<text text-anchor="start" x="-9.55176" y="-267.8" font-family="Times,serif" font-size="14.00">index</text>
<text text-anchor="start" x="-9.55176" y="-253.8" font-family="Times,serif" font-size="14.00">new</text>
<text text-anchor="start" x="-9.55176" y="-239.8" font-family="Times,serif" font-size="14.00">show</text>
<text text-anchor="start" x="-9.55176" y="-225.8" font-family="Times,serif" font-size="14.00">create</text>
<polyline fill="none" stroke="black" points="-17.5518,-219 99.5518,-219 "/>
<polyline fill="none" stroke="black" points="-17.5518,-195 99.5518,-195 "/>
<text text-anchor="start" x="-9.55176" y="-179.8" font-family="Times,serif" font-size="14.00">_layout</text>
<text text-anchor="start" x="-9.55176" y="-165.8" font-family="Times,serif" font-size="14.00">sensor_params</text>
<text text-anchor="start" x="-9.55176" y="-151.8" font-family="Times,serif" font-size="14.00">set_sensor</text>
</g>
<!-- ServersController -->
<g id="node9" class="node"><title>ServersController</title>
<path fill="none" stroke="black" d="M-149.766,-163C-149.766,-163 -58.2344,-163 -58.2344,-163 -52.2344,-163 -46.2344,-169 -46.2344,-175 -46.2344,-175 -46.2344,-353 -46.2344,-353 -46.2344,-359 -52.2344,-365 -58.2344,-365 -58.2344,-365 -149.766,-365 -149.766,-365 -155.766,-365 -161.766,-359 -161.766,-353 -161.766,-353 -161.766,-175 -161.766,-175 -161.766,-169 -155.766,-163 -149.766,-163"/>
<text text-anchor="middle" x="-104" y="-349.8" font-family="Times,serif" font-size="14.00">ServersController</text>
<polyline fill="none" stroke="black" points="-161.766,-343 -46.2344,-343 "/>
<text text-anchor="start" x="-153.766" y="-327.8" font-family="Times,serif" font-size="14.00">index</text>
<text text-anchor="start" x="-153.766" y="-313.8" font-family="Times,serif" font-size="14.00">destroy</text>
<text text-anchor="start" x="-153.766" y="-299.8" font-family="Times,serif" font-size="14.00">edit</text>
<text text-anchor="start" x="-153.766" y="-285.8" font-family="Times,serif" font-size="14.00">create</text>
<text text-anchor="start" x="-153.766" y="-271.8" font-family="Times,serif" font-size="14.00">new</text>
<text text-anchor="start" x="-153.766" y="-257.8" font-family="Times,serif" font-size="14.00">show</text>
<text text-anchor="start" x="-153.766" y="-243.8" font-family="Times,serif" font-size="14.00">update</text>
<polyline fill="none" stroke="black" points="-161.766,-237 -46.2344,-237 "/>
<polyline fill="none" stroke="black" points="-161.766,-213 -46.2344,-213 "/>
<text text-anchor="start" x="-153.766" y="-197.8" font-family="Times,serif" font-size="14.00">_layout</text>
<text text-anchor="start" x="-153.766" y="-183.8" font-family="Times,serif" font-size="14.00">server_params</text>
<text text-anchor="start" x="-153.766" y="-169.8" font-family="Times,serif" font-size="14.00">set_server</text>
</g>
<!-- StationsController -->
<g id="node10" class="node"><title>StationsController</title>
<path fill="none" stroke="black" d="M-240.331,71C-240.331,71 -145.669,71 -145.669,71 -139.669,71 -133.669,65 -133.669,59 -133.669,59 -133.669,-119 -133.669,-119 -133.669,-125 -139.669,-131 -145.669,-131 -145.669,-131 -240.331,-131 -240.331,-131 -246.331,-131 -252.331,-125 -252.331,-119 -252.331,-119 -252.331,59 -252.331,59 -252.331,65 -246.331,71 -240.331,71"/>
<text text-anchor="middle" x="-193" y="-115.8" font-family="Times,serif" font-size="14.00">StationsController</text>
<polyline fill="none" stroke="black" points="-252.331,-109 -133.669,-109 "/>
<text text-anchor="start" x="-244.331" y="-93.8" font-family="Times,serif" font-size="14.00">index</text>
<text text-anchor="start" x="-244.331" y="-79.8" font-family="Times,serif" font-size="14.00">destroy</text>
<text text-anchor="start" x="-244.331" y="-65.8" font-family="Times,serif" font-size="14.00">edit</text>
<text text-anchor="start" x="-244.331" y="-51.8" font-family="Times,serif" font-size="14.00">create</text>
<text text-anchor="start" x="-244.331" y="-37.8" font-family="Times,serif" font-size="14.00">new</text>
<text text-anchor="start" x="-244.331" y="-23.8" font-family="Times,serif" font-size="14.00">show</text>
<text text-anchor="start" x="-244.331" y="-9.8" font-family="Times,serif" font-size="14.00">update</text>
<polyline fill="none" stroke="black" points="-252.331,-3 -133.669,-3 "/>
<polyline fill="none" stroke="black" points="-252.331,21 -133.669,21 "/>
<text text-anchor="start" x="-244.331" y="36.2" font-family="Times,serif" font-size="14.00">_layout</text>
<text text-anchor="start" x="-244.331" y="50.2" font-family="Times,serif" font-size="14.00">set_station</text>
<text text-anchor="start" x="-244.331" y="64.2" font-family="Times,serif" font-size="14.00">station_params</text>
</g>
<!-- UnitsController -->
<g id="node11" class="node"><title>UnitsController</title>
<path fill="none" stroke="black" d="M300.059,-289C300.059,-289 379.941,-289 379.941,-289 385.941,-289 391.941,-295 391.941,-301 391.941,-301 391.941,-493 391.941,-493 391.941,-499 385.941,-505 379.941,-505 379.941,-505 300.059,-505 300.059,-505 294.059,-505 288.059,-499 288.059,-493 288.059,-493 288.059,-301 288.059,-301 288.059,-295 294.059,-289 300.059,-289"/>
<text text-anchor="middle" x="340" y="-489.8" font-family="Times,serif" font-size="14.00">UnitsController</text>
<polyline fill="none" stroke="black" points="288.059,-483 391.941,-483 "/>
<text text-anchor="start" x="296.059" y="-467.8" font-family="Times,serif" font-size="14.00">update</text>
<text text-anchor="start" x="296.059" y="-453.8" font-family="Times,serif" font-size="14.00">destroy</text>
<text text-anchor="start" x="296.059" y="-439.8" font-family="Times,serif" font-size="14.00">edit</text>
<text text-anchor="start" x="296.059" y="-425.8" font-family="Times,serif" font-size="14.00">grab</text>
<text text-anchor="start" x="296.059" y="-411.8" font-family="Times,serif" font-size="14.00">index</text>
<text text-anchor="start" x="296.059" y="-397.8" font-family="Times,serif" font-size="14.00">new</text>
<text text-anchor="start" x="296.059" y="-383.8" font-family="Times,serif" font-size="14.00">show</text>
<text text-anchor="start" x="296.059" y="-369.8" font-family="Times,serif" font-size="14.00">create</text>
<polyline fill="none" stroke="black" points="288.059,-363 391.941,-363 "/>
<polyline fill="none" stroke="black" points="288.059,-339 391.941,-339 "/>
<text text-anchor="start" x="296.059" y="-323.8" font-family="Times,serif" font-size="14.00">_layout</text>
<text text-anchor="start" x="296.059" y="-309.8" font-family="Times,serif" font-size="14.00">set_unit</text>
<text text-anchor="start" x="296.059" y="-295.8" font-family="Times,serif" font-size="14.00">unit_params</text>
</g>
</g>
</svg>
