<?xml version="1.0" encoding="UTF-8" standalone="no"?>
<!DOCTYPE svg PUBLIC "-//W3C//DTD SVG 1.1//EN"
 "http://www.w3.org/Graphics/SVG/1.1/DTD/svg11.dtd">
<!-- Generated by graphviz version 2.38.0 (20140413.2041)
 -->
<!-- Title: models_diagram Pages: 1 -->
<svg width="1463pt" height="898pt"
 viewBox="0.00 0.00 1463.50 898.00" xmlns="http://www.w3.org/2000/svg" xmlns:xlink="http://www.w3.org/1999/xlink">
<g id="graph0" class="graph" transform="scale(1 1) rotate(0) translate(4 894)">
<title>models_diagram</title>
<polygon fill="none" stroke="none" points="-4,4 -4,-894 1459.5,-894 1459.5,4 -4,4"/>
<!-- _diagram_info -->
<g id="node1" class="node"><title>_diagram_info</title>
<text text-anchor="start" x="251.947" y="-861.6" font-family="Times,serif" font-size="13.00">Models diagram</text>
<text text-anchor="start" x="251.947" y="-848.6" font-family="Times,serif" font-size="13.00">Date: Sep 03 2016 &#45; 16:07</text>
<text text-anchor="start" x="251.947" y="-835.6" font-family="Times,serif" font-size="13.00">Migration version: 20160903084559</text>
<text text-anchor="start" x="251.947" y="-822.6" font-family="Times,serif" font-size="13.00">Generated by RailRoady 1.5.1</text>
<text text-anchor="start" x="251.947" y="-809.6" font-family="Times,serif" font-size="13.00">http://railroady.prestonlee.com</text>
</g>
<!-- AqmeshChannel -->
<g id="node2" class="node"><title>AqmeshChannel</title>
<path fill="none" stroke="black" d="M614.772,-0.5C614.772,-0.5 838.497,-0.5 838.497,-0.5 844.497,-0.5 850.497,-6.5 850.497,-12.5 850.497,-12.5 850.497,-200.5 850.497,-200.5 850.497,-206.5 844.497,-212.5 838.497,-212.5 838.497,-212.5 614.772,-212.5 614.772,-212.5 608.772,-212.5 602.772,-206.5 602.772,-200.5 602.772,-200.5 602.772,-12.5 602.772,-12.5 602.772,-6.5 608.772,-0.5 614.772,-0.5"/>
<text text-anchor="middle" x="726.635" y="-197.3" font-family="Times,serif" font-size="14.00">AqmeshChannel</text>
<polyline fill="none" stroke="black" points="602.772,-190.5 850.497,-190.5 "/>
<text text-anchor="start" x="610.772" y="-175.3" font-family="Times,serif" font-size="14.00">updated_at :timestamp without time zone</text>
<text text-anchor="start" x="610.772" y="-161.3" font-family="Times,serif" font-size="14.00">aqmesh_datum_id :integer</text>
<text text-anchor="start" x="610.772" y="-147.3" font-family="Times,serif" font-size="14.00">pre_scaled :double precision</text>
<text text-anchor="start" x="610.772" y="-133.3" font-family="Times,serif" font-size="14.00">scaled :double precision</text>
<text text-anchor="start" x="610.772" y="-119.3" font-family="Times,serif" font-size="14.00">final :double precision</text>
<text text-anchor="start" x="610.772" y="-105.3" font-family="Times,serif" font-size="14.00">offset :double precision</text>
<text text-anchor="start" x="610.772" y="-91.3" font-family="Times,serif" font-size="14.00">slope :double precision</text>
<text text-anchor="start" x="610.772" y="-77.3" font-family="Times,serif" font-size="14.00">status :double precision</text>
<text text-anchor="start" x="610.772" y="-63.3" font-family="Times,serif" font-size="14.00">unit :character varying</text>
<text text-anchor="start" x="610.772" y="-49.3" font-family="Times,serif" font-size="14.00">sensor :character varying</text>
<text text-anchor="start" x="610.772" y="-35.3" font-family="Times,serif" font-size="14.00">label :character varying</text>
<text text-anchor="start" x="610.772" y="-21.3" font-family="Times,serif" font-size="14.00">created_at :timestamp without time zone</text>
<text text-anchor="start" x="610.772" y="-7.3" font-family="Times,serif" font-size="14.00">id :integer</text>
</g>
<!-- AqmeshDatum -->
<g id="node3" class="node"><title>AqmeshDatum</title>
<path fill="none" stroke="black" d="M614.772,-249.5C614.772,-249.5 838.497,-249.5 838.497,-249.5 844.497,-249.5 850.497,-255.5 850.497,-261.5 850.497,-261.5 850.497,-477.5 850.497,-477.5 850.497,-483.5 844.497,-489.5 838.497,-489.5 838.497,-489.5 614.772,-489.5 614.772,-489.5 608.772,-489.5 602.772,-483.5 602.772,-477.5 602.772,-477.5 602.772,-261.5 602.772,-261.5 602.772,-255.5 608.772,-249.5 614.772,-249.5"/>
<text text-anchor="middle" x="726.635" y="-474.3" font-family="Times,serif" font-size="14.00">AqmeshDatum</text>
<polyline fill="none" stroke="black" points="602.772,-467.5 850.497,-467.5 "/>
<text text-anchor="start" x="610.772" y="-452.3" font-family="Times,serif" font-size="14.00">station_id :integer</text>
<text text-anchor="start" x="610.772" y="-438.3" font-family="Times,serif" font-size="14.00">timestamp :character varying</text>
<text text-anchor="start" x="610.772" y="-424.3" font-family="Times,serif" font-size="14.00">display_type :character varying</text>
<text text-anchor="start" x="610.772" y="-410.3" font-family="Times,serif" font-size="14.00">battery :double precision</text>
<text text-anchor="start" x="610.772" y="-396.3" font-family="Times,serif" font-size="14.00">particle_protocol :character varying</text>
<text text-anchor="start" x="610.772" y="-382.3" font-family="Times,serif" font-size="14.00">gas_protocol :character varying</text>
<text text-anchor="start" x="610.772" y="-368.3" font-family="Times,serif" font-size="14.00">P1 :character varying</text>
<text text-anchor="start" x="610.772" y="-354.3" font-family="Times,serif" font-size="14.00">P2 :character varying</text>
<text text-anchor="start" x="610.772" y="-340.3" font-family="Times,serif" font-size="14.00">P3 :character varying</text>
<text text-anchor="start" x="610.772" y="-326.3" font-family="Times,serif" font-size="14.00">T1 :character varying</text>
<text text-anchor="start" x="610.772" y="-312.3" font-family="Times,serif" font-size="14.00">T2 :character varying</text>
<text text-anchor="start" x="610.772" y="-298.3" font-family="Times,serif" font-size="14.00">T3 :character varying</text>
<text text-anchor="start" x="610.772" y="-284.3" font-family="Times,serif" font-size="14.00">created_at :timestamp without time zone</text>
<text text-anchor="start" x="610.772" y="-270.3" font-family="Times,serif" font-size="14.00">updated_at :timestamp without time zone</text>
<text text-anchor="start" x="610.772" y="-256.3" font-family="Times,serif" font-size="14.00">id :integer</text>
</g>
<!-- AqmeshDatum&#45;&gt;AqmeshChannel -->
<g id="edge1" class="edge"><title>AqmeshDatum&#45;&gt;AqmeshChannel</title>
<path fill="none" stroke="#5489ef" d="M726.635,-241.413C726.635,-235.27 726.635,-229.118 726.635,-223.01"/>
<ellipse fill="none" stroke="#5489ef" cx="726.635" cy="-245.457" rx="4" ry="4"/>
<polygon fill="#5489ef" stroke="#5489ef" points="726.635,-222.782 731.135,-212.782 726.635,-217.782 726.635,-212.782 726.635,-212.782 726.635,-212.782 726.635,-217.782 722.135,-212.782 726.635,-222.782 726.635,-222.782"/>
</g>
<!-- Grab -->
<g id="node4" class="node"><title>Grab</title>
<polygon fill="none" stroke="black" points="735.635,-817.5 735.635,-861.5 789.635,-861.5 789.635,-817.5 735.635,-817.5"/>
<text text-anchor="middle" x="762.628" y="-846.3" font-family="Times,serif" font-size="14.00">Grab</text>
<polyline fill="none" stroke="black" points="735.635,-839.5 789.621,-839.5 "/>
<text text-anchor="middle" x="762.628" y="-824.3" font-family="Times,serif" font-size="14.00"> </text>
</g>
<!-- PrepareDataChart -->
<g id="node5" class="node"><title>PrepareDataChart</title>
<polygon fill="none" stroke="black" points="807.493,-817.5 807.493,-861.5 923.776,-861.5 923.776,-817.5 807.493,-817.5"/>
<text text-anchor="middle" x="865.635" y="-846.3" font-family="Times,serif" font-size="14.00">PrepareDataChart</text>
<polyline fill="none" stroke="black" points="807.493,-839.5 923.776,-839.5 "/>
<text text-anchor="middle" x="865.635" y="-824.3" font-family="Times,serif" font-size="14.00"> </text>
</g>
<!-- Role -->
<g id="node6" class="node"><title>Role</title>
<path fill="none" stroke="black" d="M64.7725,-596.5C64.7725,-596.5 288.497,-596.5 288.497,-596.5 294.497,-596.5 300.497,-602.5 300.497,-608.5 300.497,-608.5 300.497,-670.5 300.497,-670.5 300.497,-676.5 294.497,-682.5 288.497,-682.5 288.497,-682.5 64.7725,-682.5 64.7725,-682.5 58.7725,-682.5 52.7725,-676.5 52.7725,-670.5 52.7725,-670.5 52.7725,-608.5 52.7725,-608.5 52.7725,-602.5 58.7725,-596.5 64.7725,-596.5"/>
<text text-anchor="middle" x="176.635" y="-667.3" font-family="Times,serif" font-size="14.00">Role</text>
<polyline fill="none" stroke="black" points="52.7725,-660.5 300.497,-660.5 "/>
<text text-anchor="start" x="60.7725" y="-645.3" font-family="Times,serif" font-size="14.00">id :integer</text>
<text text-anchor="start" x="60.7725" y="-631.3" font-family="Times,serif" font-size="14.00">name :character varying</text>
<text text-anchor="start" x="60.7725" y="-617.3" font-family="Times,serif" font-size="14.00">created_at :timestamp without time zone</text>
<text text-anchor="start" x="60.7725" y="-603.3" font-family="Times,serif" font-size="14.00">updated_at :timestamp without time zone</text>
</g>
<!-- RoleGroup -->
<g id="node7" class="node"><title>RoleGroup</title>
<path fill="none" stroke="black" d="M348.772,-312.5C348.772,-312.5 572.497,-312.5 572.497,-312.5 578.497,-312.5 584.497,-318.5 584.497,-324.5 584.497,-324.5 584.497,-414.5 584.497,-414.5 584.497,-420.5 578.497,-426.5 572.497,-426.5 572.497,-426.5 348.772,-426.5 348.772,-426.5 342.772,-426.5 336.772,-420.5 336.772,-414.5 336.772,-414.5 336.772,-324.5 336.772,-324.5 336.772,-318.5 342.772,-312.5 348.772,-312.5"/>
<text text-anchor="middle" x="460.635" y="-411.3" font-family="Times,serif" font-size="14.00">RoleGroup</text>
<polyline fill="none" stroke="black" points="336.772,-404.5 584.497,-404.5 "/>
<text text-anchor="start" x="344.772" y="-389.3" font-family="Times,serif" font-size="14.00">id :integer</text>
<text text-anchor="start" x="344.772" y="-375.3" font-family="Times,serif" font-size="14.00">name :character varying</text>
<text text-anchor="start" x="344.772" y="-361.3" font-family="Times,serif" font-size="14.00">role_id :integer</text>
<text text-anchor="start" x="344.772" y="-347.3" font-family="Times,serif" font-size="14.00">station_id :integer</text>
<text text-anchor="start" x="344.772" y="-333.3" font-family="Times,serif" font-size="14.00">created_at :timestamp without time zone</text>
<text text-anchor="start" x="344.772" y="-319.3" font-family="Times,serif" font-size="14.00">updated_at :timestamp without time zone</text>
</g>
<!-- Role&#45;&gt;RoleGroup -->
<g id="edge3" class="edge"><title>Role&#45;&gt;RoleGroup</title>
<path fill="none" stroke="#89718a" d="M227.434,-590.563C273.873,-546.74 342.871,-481.629 393.775,-433.593"/>
<ellipse fill="none" stroke="#89718a" cx="224.231" cy="-593.585" rx="4.00002" ry="4.00002"/>
<polygon fill="#89718a" stroke="#89718a" points="393.876,-433.498 404.237,-429.908 397.512,-430.066 401.149,-426.635 401.149,-426.635 401.149,-426.635 397.512,-430.066 398.06,-423.362 393.876,-433.498 393.876,-433.498"/>
</g>
<!-- User -->
<g id="node12" class="node"><title>User</title>
<path fill="none" stroke="black" d="M12,-256.5C12,-256.5 307.27,-256.5 307.27,-256.5 313.27,-256.5 319.27,-262.5 319.27,-268.5 319.27,-268.5 319.27,-470.5 319.27,-470.5 319.27,-476.5 313.27,-482.5 307.27,-482.5 307.27,-482.5 12,-482.5 12,-482.5 6,-482.5 0,-476.5 0,-470.5 0,-470.5 0,-268.5 0,-268.5 0,-262.5 6,-256.5 12,-256.5"/>
<text text-anchor="middle" x="159.635" y="-467.3" font-family="Times,serif" font-size="14.00">User</text>
<polyline fill="none" stroke="black" points="0,-460.5 319.27,-460.5 "/>
<text text-anchor="start" x="8" y="-445.3" font-family="Times,serif" font-size="14.00">role_id :integer</text>
<text text-anchor="start" x="8" y="-431.3" font-family="Times,serif" font-size="14.00">email :character varying</text>
<text text-anchor="start" x="8" y="-417.3" font-family="Times,serif" font-size="14.00">encrypted_password :character varying</text>
<text text-anchor="start" x="8" y="-403.3" font-family="Times,serif" font-size="14.00">reset_password_token :character varying</text>
<text text-anchor="start" x="8" y="-389.3" font-family="Times,serif" font-size="14.00">reset_password_sent_at :timestamp without time zone</text>
<text text-anchor="start" x="8" y="-375.3" font-family="Times,serif" font-size="14.00">remember_created_at :timestamp without time zone</text>
<text text-anchor="start" x="8" y="-361.3" font-family="Times,serif" font-size="14.00">sign_in_count :integer</text>
<text text-anchor="start" x="8" y="-347.3" font-family="Times,serif" font-size="14.00">current_sign_in_at :timestamp without time zone</text>
<text text-anchor="start" x="8" y="-333.3" font-family="Times,serif" font-size="14.00">last_sign_in_at :timestamp without time zone</text>
<text text-anchor="start" x="8" y="-319.3" font-family="Times,serif" font-size="14.00">current_sign_in_ip :inet</text>
<text text-anchor="start" x="8" y="-305.3" font-family="Times,serif" font-size="14.00">last_sign_in_ip :inet</text>
<text text-anchor="start" x="8" y="-291.3" font-family="Times,serif" font-size="14.00">created_at :timestamp without time zone</text>
<text text-anchor="start" x="8" y="-277.3" font-family="Times,serif" font-size="14.00">updated_at :timestamp without time zone</text>
<text text-anchor="start" x="8" y="-263.3" font-family="Times,serif" font-size="14.00">id :integer</text>
</g>
<!-- Role&#45;&gt;User -->
<g id="edge2" class="edge"><title>Role&#45;&gt;User</title>
<path fill="none" stroke="#6197d9" d="M173.443,-588.181C171.73,-561.185 169.539,-526.632 167.408,-493.046"/>
<ellipse fill="none" stroke="#6197d9" cx="173.707" cy="-592.338" rx="4" ry="4"/>
<polygon fill="#6197d9" stroke="#6197d9" points="167.383,-492.643 171.241,-482.379 167.066,-487.653 166.75,-482.664 166.75,-482.664 166.75,-482.664 167.066,-487.653 162.259,-482.948 167.383,-492.643 167.383,-492.643"/>
</g>
<!-- Sensor -->
<g id="node8" class="node"><title>Sensor</title>
<path fill="none" stroke="black" d="M953.772,-789.5C953.772,-789.5 1177.5,-789.5 1177.5,-789.5 1183.5,-789.5 1189.5,-795.5 1189.5,-801.5 1189.5,-801.5 1189.5,-877.5 1189.5,-877.5 1189.5,-883.5 1183.5,-889.5 1177.5,-889.5 1177.5,-889.5 953.772,-889.5 953.772,-889.5 947.772,-889.5 941.772,-883.5 941.772,-877.5 941.772,-877.5 941.772,-801.5 941.772,-801.5 941.772,-795.5 947.772,-789.5 953.772,-789.5"/>
<text text-anchor="middle" x="1065.63" y="-874.3" font-family="Times,serif" font-size="14.00">Sensor</text>
<polyline fill="none" stroke="black" points="941.772,-867.5 1189.5,-867.5 "/>
<text text-anchor="start" x="949.772" y="-852.3" font-family="Times,serif" font-size="14.00">id :integer</text>
<text text-anchor="start" x="949.772" y="-838.3" font-family="Times,serif" font-size="14.00">name :character varying</text>
<text text-anchor="start" x="949.772" y="-824.3" font-family="Times,serif" font-size="14.00">label :character varying</text>
<text text-anchor="start" x="949.772" y="-810.3" font-family="Times,serif" font-size="14.00">created_at :timestamp without time zone</text>
<text text-anchor="start" x="949.772" y="-796.3" font-family="Times,serif" font-size="14.00">updated_at :timestamp without time zone</text>
</g>
<!-- Server -->
<g id="node9" class="node"><title>Server</title>
<path fill="none" stroke="black" d="M481.772,-789.5C481.772,-789.5 705.497,-789.5 705.497,-789.5 711.497,-789.5 717.497,-795.5 717.497,-801.5 717.497,-801.5 717.497,-877.5 717.497,-877.5 717.497,-883.5 711.497,-889.5 705.497,-889.5 705.497,-889.5 481.772,-889.5 481.772,-889.5 475.772,-889.5 469.772,-883.5 469.772,-877.5 469.772,-877.5 469.772,-801.5 469.772,-801.5 469.772,-795.5 475.772,-789.5 481.772,-789.5"/>
<text text-anchor="middle" x="593.635" y="-874.3" font-family="Times,serif" font-size="14.00">Server</text>
<polyline fill="none" stroke="black" points="469.772,-867.5 717.497,-867.5 "/>
<text text-anchor="start" x="477.772" y="-852.3" font-family="Times,serif" font-size="14.00">id :integer</text>
<text text-anchor="start" x="477.772" y="-838.3" font-family="Times,serif" font-size="14.00">name :character varying</text>
<text text-anchor="start" x="477.772" y="-824.3" font-family="Times,serif" font-size="14.00">created_at :timestamp without time zone</text>
<text text-anchor="start" x="477.772" y="-810.3" font-family="Times,serif" font-size="14.00">updated_at :timestamp without time zone</text>
<text text-anchor="start" x="477.772" y="-796.3" font-family="Times,serif" font-size="14.00">number :integer</text>
</g>
<!-- Station -->
<g id="node10" class="node"><title>Station</title>
<path fill="none" stroke="black" d="M481.772,-526.5C481.772,-526.5 705.497,-526.5 705.497,-526.5 711.497,-526.5 717.497,-532.5 717.497,-538.5 717.497,-538.5 717.497,-740.5 717.497,-740.5 717.497,-746.5 711.497,-752.5 705.497,-752.5 705.497,-752.5 481.772,-752.5 481.772,-752.5 475.772,-752.5 469.772,-746.5 469.772,-740.5 469.772,-740.5 469.772,-538.5 469.772,-538.5 469.772,-532.5 475.772,-526.5 481.772,-526.5"/>
<text text-anchor="middle" x="593.635" y="-737.3" font-family="Times,serif" font-size="14.00">Station</text>
<polyline fill="none" stroke="black" points="469.772,-730.5 717.497,-730.5 "/>
<text text-anchor="start" x="477.772" y="-715.3" font-family="Times,serif" font-size="14.00">country :character varying</text>
<text text-anchor="start" x="477.772" y="-701.3" font-family="Times,serif" font-size="14.00">name :character varying</text>
<text text-anchor="start" x="477.772" y="-687.3" font-family="Times,serif" font-size="14.00">serial_number :character varying</text>
<text text-anchor="start" x="477.772" y="-673.3" font-family="Times,serif" font-size="14.00">server_id :integer</text>
<text text-anchor="start" x="477.772" y="-659.3" font-family="Times,serif" font-size="14.00">type :character varying</text>
<text text-anchor="start" x="477.772" y="-645.3" font-family="Times,serif" font-size="14.00">active :boolean</text>
<text text-anchor="start" x="477.772" y="-631.3" font-family="Times,serif" font-size="14.00">external :boolean</text>
<text text-anchor="start" x="477.772" y="-617.3" font-family="Times,serif" font-size="14.00">latitude :double precision</text>
<text text-anchor="start" x="477.772" y="-603.3" font-family="Times,serif" font-size="14.00">longitude :double precision</text>
<text text-anchor="start" x="477.772" y="-589.3" font-family="Times,serif" font-size="14.00">created_at :timestamp without time zone</text>
<text text-anchor="start" x="477.772" y="-575.3" font-family="Times,serif" font-size="14.00">updated_at :timestamp without time zone</text>
<text text-anchor="start" x="477.772" y="-561.3" font-family="Times,serif" font-size="14.00">number :integer</text>
<text text-anchor="start" x="477.772" y="-547.3" font-family="Times,serif" font-size="14.00">city :character varying</text>
<text text-anchor="start" x="477.772" y="-533.3" font-family="Times,serif" font-size="14.00">id :integer</text>
</g>
<!-- Server&#45;&gt;Station -->
<g id="edge4" class="edge"><title>Server&#45;&gt;Station</title>
<path fill="none" stroke="#add1b7" d="M593.635,-781.146C593.635,-775.196 593.635,-769 593.635,-762.671"/>
<ellipse fill="none" stroke="#add1b7" cx="593.635" cy="-785.302" rx="4" ry="4"/>
<polygon fill="#add1b7" stroke="#add1b7" points="593.635,-762.63 598.135,-752.63 593.635,-757.63 593.635,-752.63 593.635,-752.63 593.635,-752.63 593.635,-757.63 589.135,-752.63 593.635,-762.63 593.635,-762.63"/>
</g>
<!-- Station&#45;&gt;AqmeshDatum -->
<g id="edge5" class="edge"><title>Station&#45;&gt;AqmeshDatum</title>
<path fill="none" stroke="#193d85" d="M652.925,-519.028C656.223,-512.382 659.545,-505.688 662.858,-499.012"/>
<ellipse fill="none" stroke="#193d85" cx="651.046" cy="-522.814" rx="4.00002" ry="4.00002"/>
<polygon fill="#193d85" stroke="#193d85" points="662.922,-498.884 671.398,-491.927 665.144,-494.405 667.367,-489.927 667.367,-489.927 667.367,-489.927 665.144,-494.405 663.336,-487.926 662.922,-498.884 662.922,-498.884"/>
</g>
<!-- Station&#45;&gt;RoleGroup -->
<g id="edge6" class="edge"><title>Station&#45;&gt;RoleGroup</title>
<path fill="none" stroke="#3c42a3" d="M534.385,-519.109C520.144,-490.413 505.454,-460.813 492.97,-435.657"/>
<ellipse fill="none" stroke="#3c42a3" cx="536.223" cy="-522.814" rx="4.00002" ry="4.00002"/>
<polygon fill="#3c42a3" stroke="#3c42a3" points="492.921,-435.558 492.506,-424.6 490.698,-431.079 488.475,-426.6 488.475,-426.6 488.475,-426.6 490.698,-431.079 484.444,-428.6 492.921,-435.558 492.921,-435.558"/>
</g>
<!-- Unit -->
<g id="node11" class="node"><title>Unit</title>
<path fill="none" stroke="black" d="M1219.77,-789.5C1219.77,-789.5 1443.5,-789.5 1443.5,-789.5 1449.5,-789.5 1455.5,-795.5 1455.5,-801.5 1455.5,-801.5 1455.5,-877.5 1455.5,-877.5 1455.5,-883.5 1449.5,-889.5 1443.5,-889.5 1443.5,-889.5 1219.77,-889.5 1219.77,-889.5 1213.77,-889.5 1207.77,-883.5 1207.77,-877.5 1207.77,-877.5 1207.77,-801.5 1207.77,-801.5 1207.77,-795.5 1213.77,-789.5 1219.77,-789.5"/>
<text text-anchor="middle" x="1331.63" y="-874.3" font-family="Times,serif" font-size="14.00">Unit</text>
<polyline fill="none" stroke="black" points="1207.77,-867.5 1455.5,-867.5 "/>
<text text-anchor="start" x="1215.77" y="-852.3" font-family="Times,serif" font-size="14.00">id :integer</text>
<text text-anchor="start" x="1215.77" y="-838.3" font-family="Times,serif" font-size="14.00">name :character varying</text>
<text text-anchor="start" x="1215.77" y="-824.3" font-family="Times,serif" font-size="14.00">unit :character varying</text>
<text text-anchor="start" x="1215.77" y="-810.3" font-family="Times,serif" font-size="14.00">created_at :timestamp without time zone</text>
<text text-anchor="start" x="1215.77" y="-796.3" font-family="Times,serif" font-size="14.00">updated_at :timestamp without time zone</text>
</g>
</g>
</svg>
