<?xml version="1.0" encoding="UTF-8" standalone="no"?>
<!DOCTYPE svg PUBLIC "-//W3C//DTD SVG 1.1//EN"
 "http://www.w3.org/Graphics/SVG/1.1/DTD/svg11.dtd">
<!-- Generated by graphviz version 2.38.0 (20140413.2041)
 -->
<!-- Title: models_diagram Pages: 1 -->
<svg width="2088pt" height="484pt"
 viewBox="0.00 0.00 2088.32 484.00" xmlns="http://www.w3.org/2000/svg" xmlns:xlink="http://www.w3.org/1999/xlink">
<g id="graph0" class="graph" transform="scale(1 1) rotate(0) translate(4 480)">
<title>models_diagram</title>
<polygon fill="none" stroke="none" points="-4,4 -4,-480 2084.32,-480 2084.32,4 -4,4"/>
<!-- _diagram_info -->
<g id="node1" class="node"><title>_diagram_info</title>
<text text-anchor="start" x="8" y="-384.6" font-family="Times,serif" font-size="13.00">Models diagram</text>
<text text-anchor="start" x="8" y="-371.6" font-family="Times,serif" font-size="13.00">Date: Sep 01 2016 &#45; 23:15</text>
<text text-anchor="start" x="8" y="-358.6" font-family="Times,serif" font-size="13.00">Migration version: 20160803125755</text>
<text text-anchor="start" x="8" y="-345.6" font-family="Times,serif" font-size="13.00">Generated by RailRoady 1.5.1</text>
<text text-anchor="start" x="8" y="-332.6" font-family="Times,serif" font-size="13.00">http://railroady.prestonlee.com</text>
</g>
<!-- AqmeshChannel -->
<g id="node2" class="node"><title>AqmeshChannel</title>
<path fill="none" stroke="black" d="M237.825,-0.5C237.825,-0.5 461.55,-0.5 461.55,-0.5 467.55,-0.5 473.55,-6.5 473.55,-12.5 473.55,-12.5 473.55,-200.5 473.55,-200.5 473.55,-206.5 467.55,-212.5 461.55,-212.5 461.55,-212.5 237.825,-212.5 237.825,-212.5 231.825,-212.5 225.825,-206.5 225.825,-200.5 225.825,-200.5 225.825,-12.5 225.825,-12.5 225.825,-6.5 231.825,-0.5 237.825,-0.5"/>
<text text-anchor="middle" x="349.688" y="-197.3" font-family="Times,serif" font-size="14.00">AqmeshChannel</text>
<polyline fill="none" stroke="black" points="225.825,-190.5 473.55,-190.5 "/>
<text text-anchor="start" x="233.825" y="-175.3" font-family="Times,serif" font-size="14.00">updated_at :timestamp without time zone</text>
<text text-anchor="start" x="233.825" y="-161.3" font-family="Times,serif" font-size="14.00">aqmesh_datum_id :integer</text>
<text text-anchor="start" x="233.825" y="-147.3" font-family="Times,serif" font-size="14.00">pre_scaled :double precision</text>
<text text-anchor="start" x="233.825" y="-133.3" font-family="Times,serif" font-size="14.00">scaled :double precision</text>
<text text-anchor="start" x="233.825" y="-119.3" font-family="Times,serif" font-size="14.00">final :double precision</text>
<text text-anchor="start" x="233.825" y="-105.3" font-family="Times,serif" font-size="14.00">offset :double precision</text>
<text text-anchor="start" x="233.825" y="-91.3" font-family="Times,serif" font-size="14.00">slope :double precision</text>
<text text-anchor="start" x="233.825" y="-77.3" font-family="Times,serif" font-size="14.00">status :double precision</text>
<text text-anchor="start" x="233.825" y="-63.3" font-family="Times,serif" font-size="14.00">unit :character varying</text>
<text text-anchor="start" x="233.825" y="-49.3" font-family="Times,serif" font-size="14.00">sensor :character varying</text>
<text text-anchor="start" x="233.825" y="-35.3" font-family="Times,serif" font-size="14.00">label :character varying</text>
<text text-anchor="start" x="233.825" y="-21.3" font-family="Times,serif" font-size="14.00">created_at :timestamp without time zone</text>
<text text-anchor="start" x="233.825" y="-7.3" font-family="Times,serif" font-size="14.00">id :integer</text>
</g>
<!-- AqmeshDatum -->
<g id="node3" class="node"><title>AqmeshDatum</title>
<path fill="none" stroke="black" d="M237.825,-249.5C237.825,-249.5 461.55,-249.5 461.55,-249.5 467.55,-249.5 473.55,-255.5 473.55,-261.5 473.55,-261.5 473.55,-463.5 473.55,-463.5 473.55,-469.5 467.55,-475.5 461.55,-475.5 461.55,-475.5 237.825,-475.5 237.825,-475.5 231.825,-475.5 225.825,-469.5 225.825,-463.5 225.825,-463.5 225.825,-261.5 225.825,-261.5 225.825,-255.5 231.825,-249.5 237.825,-249.5"/>
<text text-anchor="middle" x="349.688" y="-460.3" font-family="Times,serif" font-size="14.00">AqmeshDatum</text>
<polyline fill="none" stroke="black" points="225.825,-453.5 473.55,-453.5 "/>
<text text-anchor="start" x="233.825" y="-438.3" font-family="Times,serif" font-size="14.00">updated_at :timestamp without time zone</text>
<text text-anchor="start" x="233.825" y="-424.3" font-family="Times,serif" font-size="14.00">timestamp :character varying</text>
<text text-anchor="start" x="233.825" y="-410.3" font-family="Times,serif" font-size="14.00">display_type :character varying</text>
<text text-anchor="start" x="233.825" y="-396.3" font-family="Times,serif" font-size="14.00">battery :double precision</text>
<text text-anchor="start" x="233.825" y="-382.3" font-family="Times,serif" font-size="14.00">particle_protocol :character varying</text>
<text text-anchor="start" x="233.825" y="-368.3" font-family="Times,serif" font-size="14.00">gas_protocol :character varying</text>
<text text-anchor="start" x="233.825" y="-354.3" font-family="Times,serif" font-size="14.00">P1 :character varying</text>
<text text-anchor="start" x="233.825" y="-340.3" font-family="Times,serif" font-size="14.00">P2 :character varying</text>
<text text-anchor="start" x="233.825" y="-326.3" font-family="Times,serif" font-size="14.00">P3 :character varying</text>
<text text-anchor="start" x="233.825" y="-312.3" font-family="Times,serif" font-size="14.00">T1 :character varying</text>
<text text-anchor="start" x="233.825" y="-298.3" font-family="Times,serif" font-size="14.00">T2 :character varying</text>
<text text-anchor="start" x="233.825" y="-284.3" font-family="Times,serif" font-size="14.00">T3 :character varying</text>
<text text-anchor="start" x="233.825" y="-270.3" font-family="Times,serif" font-size="14.00">created_at :timestamp without time zone</text>
<text text-anchor="start" x="233.825" y="-256.3" font-family="Times,serif" font-size="14.00">id :integer</text>
</g>
<!-- AqmeshDatum&#45;&gt;AqmeshChannel -->
<g id="edge1" class="edge"><title>AqmeshDatum&#45;&gt;AqmeshChannel</title>
<path fill="none" stroke="#98566d" d="M349.688,-241.307C349.688,-235.158 349.688,-228.988 349.688,-222.854"/>
<ellipse fill="none" stroke="#98566d" cx="349.688" cy="-245.353" rx="4" ry="4"/>
<polygon fill="#98566d" stroke="#98566d" points="349.688,-222.576 354.188,-212.576 349.688,-217.576 349.688,-212.576 349.688,-212.576 349.688,-212.576 349.688,-217.576 345.188,-212.576 349.688,-222.576 349.688,-222.576"/>
</g>
<!-- Grab -->
<g id="node4" class="node"><title>Grab</title>
<polygon fill="none" stroke="black" points="491.688,-340.5 491.688,-384.5 545.688,-384.5 545.688,-340.5 491.688,-340.5"/>
<text text-anchor="middle" x="518.681" y="-369.3" font-family="Times,serif" font-size="14.00">Grab</text>
<polyline fill="none" stroke="black" points="491.688,-362.5 545.674,-362.5 "/>
<text text-anchor="middle" x="518.681" y="-347.3" font-family="Times,serif" font-size="14.00"> </text>
</g>
<!-- PrepareDataChart -->
<g id="node5" class="node"><title>PrepareDataChart</title>
<polygon fill="none" stroke="black" points="563.546,-340.5 563.546,-384.5 679.829,-384.5 679.829,-340.5 563.546,-340.5"/>
<text text-anchor="middle" x="621.688" y="-369.3" font-family="Times,serif" font-size="14.00">PrepareDataChart</text>
<polyline fill="none" stroke="black" points="563.546,-362.5 679.829,-362.5 "/>
<text text-anchor="middle" x="621.688" y="-347.3" font-family="Times,serif" font-size="14.00"> </text>
</g>
<!-- Sensor -->
<g id="node6" class="node"><title>Sensor</title>
<path fill="none" stroke="black" d="M709.825,-312.5C709.825,-312.5 933.55,-312.5 933.55,-312.5 939.55,-312.5 945.55,-318.5 945.55,-324.5 945.55,-324.5 945.55,-400.5 945.55,-400.5 945.55,-406.5 939.55,-412.5 933.55,-412.5 933.55,-412.5 709.825,-412.5 709.825,-412.5 703.825,-412.5 697.825,-406.5 697.825,-400.5 697.825,-400.5 697.825,-324.5 697.825,-324.5 697.825,-318.5 703.825,-312.5 709.825,-312.5"/>
<text text-anchor="middle" x="821.688" y="-397.3" font-family="Times,serif" font-size="14.00">Sensor</text>
<polyline fill="none" stroke="black" points="697.825,-390.5 945.55,-390.5 "/>
<text text-anchor="start" x="705.825" y="-375.3" font-family="Times,serif" font-size="14.00">id :integer</text>
<text text-anchor="start" x="705.825" y="-361.3" font-family="Times,serif" font-size="14.00">name :character varying</text>
<text text-anchor="start" x="705.825" y="-347.3" font-family="Times,serif" font-size="14.00">label :character varying</text>
<text text-anchor="start" x="705.825" y="-333.3" font-family="Times,serif" font-size="14.00">created_at :timestamp without time zone</text>
<text text-anchor="start" x="705.825" y="-319.3" font-family="Times,serif" font-size="14.00">updated_at :timestamp without time zone</text>
</g>
<!-- Server -->
<g id="node7" class="node"><title>Server</title>
<path fill="none" stroke="black" d="M975.825,-319.5C975.825,-319.5 1199.55,-319.5 1199.55,-319.5 1205.55,-319.5 1211.55,-325.5 1211.55,-331.5 1211.55,-331.5 1211.55,-393.5 1211.55,-393.5 1211.55,-399.5 1205.55,-405.5 1199.55,-405.5 1199.55,-405.5 975.825,-405.5 975.825,-405.5 969.825,-405.5 963.825,-399.5 963.825,-393.5 963.825,-393.5 963.825,-331.5 963.825,-331.5 963.825,-325.5 969.825,-319.5 975.825,-319.5"/>
<text text-anchor="middle" x="1087.69" y="-390.3" font-family="Times,serif" font-size="14.00">Server</text>
<polyline fill="none" stroke="black" points="963.825,-383.5 1211.55,-383.5 "/>
<text text-anchor="start" x="971.825" y="-368.3" font-family="Times,serif" font-size="14.00">id :integer</text>
<text text-anchor="start" x="971.825" y="-354.3" font-family="Times,serif" font-size="14.00">name :character varying</text>
<text text-anchor="start" x="971.825" y="-340.3" font-family="Times,serif" font-size="14.00">created_at :timestamp without time zone</text>
<text text-anchor="start" x="971.825" y="-326.3" font-family="Times,serif" font-size="14.00">updated_at :timestamp without time zone</text>
</g>
<!-- Station -->
<g id="node8" class="node"><title>Station</title>
<path fill="none" stroke="black" d="M1241.83,-270.5C1241.83,-270.5 1465.55,-270.5 1465.55,-270.5 1471.55,-270.5 1477.55,-276.5 1477.55,-282.5 1477.55,-282.5 1477.55,-442.5 1477.55,-442.5 1477.55,-448.5 1471.55,-454.5 1465.55,-454.5 1465.55,-454.5 1241.83,-454.5 1241.83,-454.5 1235.83,-454.5 1229.83,-448.5 1229.83,-442.5 1229.83,-442.5 1229.83,-282.5 1229.83,-282.5 1229.83,-276.5 1235.83,-270.5 1241.83,-270.5"/>
<text text-anchor="middle" x="1353.69" y="-439.3" font-family="Times,serif" font-size="14.00">Station</text>
<polyline fill="none" stroke="black" points="1229.83,-432.5 1477.55,-432.5 "/>
<text text-anchor="start" x="1237.83" y="-417.3" font-family="Times,serif" font-size="14.00">updated_at :timestamp without time zone</text>
<text text-anchor="start" x="1237.83" y="-403.3" font-family="Times,serif" font-size="14.00">name :character varying</text>
<text text-anchor="start" x="1237.83" y="-389.3" font-family="Times,serif" font-size="14.00">serial_number :character varying</text>
<text text-anchor="start" x="1237.83" y="-375.3" font-family="Times,serif" font-size="14.00">server_id :integer</text>
<text text-anchor="start" x="1237.83" y="-361.3" font-family="Times,serif" font-size="14.00">type :character varying</text>
<text text-anchor="start" x="1237.83" y="-347.3" font-family="Times,serif" font-size="14.00">active :boolean</text>
<text text-anchor="start" x="1237.83" y="-333.3" font-family="Times,serif" font-size="14.00">external :boolean</text>
<text text-anchor="start" x="1237.83" y="-319.3" font-family="Times,serif" font-size="14.00">latitude :double precision</text>
<text text-anchor="start" x="1237.83" y="-305.3" font-family="Times,serif" font-size="14.00">longitude :double precision</text>
<text text-anchor="start" x="1237.83" y="-291.3" font-family="Times,serif" font-size="14.00">created_at :timestamp without time zone</text>
<text text-anchor="start" x="1237.83" y="-277.3" font-family="Times,serif" font-size="14.00">id :integer</text>
</g>
<!-- Unit -->
<g id="node9" class="node"><title>Unit</title>
<path fill="none" stroke="black" d="M1507.83,-312.5C1507.83,-312.5 1731.55,-312.5 1731.55,-312.5 1737.55,-312.5 1743.55,-318.5 1743.55,-324.5 1743.55,-324.5 1743.55,-400.5 1743.55,-400.5 1743.55,-406.5 1737.55,-412.5 1731.55,-412.5 1731.55,-412.5 1507.83,-412.5 1507.83,-412.5 1501.83,-412.5 1495.83,-406.5 1495.83,-400.5 1495.83,-400.5 1495.83,-324.5 1495.83,-324.5 1495.83,-318.5 1501.83,-312.5 1507.83,-312.5"/>
<text text-anchor="middle" x="1619.69" y="-397.3" font-family="Times,serif" font-size="14.00">Unit</text>
<polyline fill="none" stroke="black" points="1495.83,-390.5 1743.55,-390.5 "/>
<text text-anchor="start" x="1503.83" y="-375.3" font-family="Times,serif" font-size="14.00">id :integer</text>
<text text-anchor="start" x="1503.83" y="-361.3" font-family="Times,serif" font-size="14.00">name :character varying</text>
<text text-anchor="start" x="1503.83" y="-347.3" font-family="Times,serif" font-size="14.00">unit :character varying</text>
<text text-anchor="start" x="1503.83" y="-333.3" font-family="Times,serif" font-size="14.00">created_at :timestamp without time zone</text>
<text text-anchor="start" x="1503.83" y="-319.3" font-family="Times,serif" font-size="14.00">updated_at :timestamp without time zone</text>
</g>
<!-- User -->
<g id="node10" class="node"><title>User</title>
<path fill="none" stroke="black" d="M1773.05,-256.5C1773.05,-256.5 2068.32,-256.5 2068.32,-256.5 2074.32,-256.5 2080.32,-262.5 2080.32,-268.5 2080.32,-268.5 2080.32,-456.5 2080.32,-456.5 2080.32,-462.5 2074.32,-468.5 2068.32,-468.5 2068.32,-468.5 1773.05,-468.5 1773.05,-468.5 1767.05,-468.5 1761.05,-462.5 1761.05,-456.5 1761.05,-456.5 1761.05,-268.5 1761.05,-268.5 1761.05,-262.5 1767.05,-256.5 1773.05,-256.5"/>
<text text-anchor="middle" x="1920.69" y="-453.3" font-family="Times,serif" font-size="14.00">User</text>
<polyline fill="none" stroke="black" points="1761.05,-446.5 2080.32,-446.5 "/>
<text text-anchor="start" x="1769.05" y="-431.3" font-family="Times,serif" font-size="14.00">updated_at :timestamp without time zone</text>
<text text-anchor="start" x="1769.05" y="-417.3" font-family="Times,serif" font-size="14.00">email :character varying</text>
<text text-anchor="start" x="1769.05" y="-403.3" font-family="Times,serif" font-size="14.00">encrypted_password :character varying</text>
<text text-anchor="start" x="1769.05" y="-389.3" font-family="Times,serif" font-size="14.00">reset_password_token :character varying</text>
<text text-anchor="start" x="1769.05" y="-375.3" font-family="Times,serif" font-size="14.00">reset_password_sent_at :timestamp without time zone</text>
<text text-anchor="start" x="1769.05" y="-361.3" font-family="Times,serif" font-size="14.00">remember_created_at :timestamp without time zone</text>
<text text-anchor="start" x="1769.05" y="-347.3" font-family="Times,serif" font-size="14.00">sign_in_count :integer</text>
<text text-anchor="start" x="1769.05" y="-333.3" font-family="Times,serif" font-size="14.00">current_sign_in_at :timestamp without time zone</text>
<text text-anchor="start" x="1769.05" y="-319.3" font-family="Times,serif" font-size="14.00">last_sign_in_at :timestamp without time zone</text>
<text text-anchor="start" x="1769.05" y="-305.3" font-family="Times,serif" font-size="14.00">current_sign_in_ip :inet</text>
<text text-anchor="start" x="1769.05" y="-291.3" font-family="Times,serif" font-size="14.00">last_sign_in_ip :inet</text>
<text text-anchor="start" x="1769.05" y="-277.3" font-family="Times,serif" font-size="14.00">created_at :timestamp without time zone</text>
<text text-anchor="start" x="1769.05" y="-263.3" font-family="Times,serif" font-size="14.00">id :integer</text>
</g>
</g>
</svg>
