<?xml version="1.0" encoding="UTF-8" standalone="no"?>
<!DOCTYPE svg PUBLIC "-//W3C//DTD SVG 1.1//EN"
 "http://www.w3.org/Graphics/SVG/1.1/DTD/svg11.dtd">
<!-- Generated by graphviz version 2.38.0 (20140413.2041)
 -->
<!-- Title: models_diagram Pages: 1 -->
<svg width="1556pt" height="1010pt"
 viewBox="0.00 0.00 1556.32 1010.00" xmlns="http://www.w3.org/2000/svg" xmlns:xlink="http://www.w3.org/1999/xlink">
<g id="graph0" class="graph" transform="scale(1 1) rotate(0) translate(4 1006)">
<title>models_diagram</title>
<polygon fill="none" stroke="none" points="-4,4 -4,-1006 1552.32,-1006 1552.32,4 -4,4"/>
<!-- _diagram_info -->
<g id="node1" class="node"><title>_diagram_info</title>
<text text-anchor="start" x="8" y="-917.6" font-family="Times,serif" font-size="13.00">Models diagram</text>
<text text-anchor="start" x="8" y="-904.6" font-family="Times,serif" font-size="13.00">Date: Sep 03 2016 &#45; 15:08</text>
<text text-anchor="start" x="8" y="-891.6" font-family="Times,serif" font-size="13.00">Migration version: 20160903072940</text>
<text text-anchor="start" x="8" y="-878.6" font-family="Times,serif" font-size="13.00">Generated by RailRoady 1.5.1</text>
<text text-anchor="start" x="8" y="-865.6" font-family="Times,serif" font-size="13.00">http://railroady.prestonlee.com</text>
</g>
<!-- AqmeshChannel -->
<g id="node2" class="node"><title>AqmeshChannel</title>
<path fill="none" stroke="black" d="M237.825,-0.5C237.825,-0.5 461.55,-0.5 461.55,-0.5 467.55,-0.5 473.55,-6.5 473.55,-12.5 473.55,-12.5 473.55,-200.5 473.55,-200.5 473.55,-206.5 467.55,-212.5 461.55,-212.5 461.55,-212.5 237.825,-212.5 237.825,-212.5 231.825,-212.5 225.825,-206.5 225.825,-200.5 225.825,-200.5 225.825,-12.5 225.825,-12.5 225.825,-6.5 231.825,-0.5 237.825,-0.5"/>
<text text-anchor="middle" x="349.688" y="-197.3" font-family="Times,serif" font-size="14.00">AqmeshChannel</text>
<polyline fill="none" stroke="black" points="225.825,-190.5 473.55,-190.5 "/>
<text text-anchor="start" x="233.825" y="-175.3" font-family="Times,serif" font-size="14.00">updated_at :timestamp without time zone</text>
<text text-anchor="start" x="233.825" y="-161.3" font-family="Times,serif" font-size="14.00">aqmesh_datum_id :integer</text>
<text text-anchor="start" x="233.825" y="-147.3" font-family="Times,serif" font-size="14.00">pre_scaled :double precision</text>
<text text-anchor="start" x="233.825" y="-133.3" font-family="Times,serif" font-size="14.00">scaled :double precision</text>
<text text-anchor="start" x="233.825" y="-119.3" font-family="Times,serif" font-size="14.00">final :double precision</text>
<text text-anchor="start" x="233.825" y="-105.3" font-family="Times,serif" font-size="14.00">offset :double precision</text>
<text text-anchor="start" x="233.825" y="-91.3" font-family="Times,serif" font-size="14.00">slope :double precision</text>
<text text-anchor="start" x="233.825" y="-77.3" font-family="Times,serif" font-size="14.00">status :double precision</text>
<text text-anchor="start" x="233.825" y="-63.3" font-family="Times,serif" font-size="14.00">unit :character varying</text>
<text text-anchor="start" x="233.825" y="-49.3" font-family="Times,serif" font-size="14.00">sensor :character varying</text>
<text text-anchor="start" x="233.825" y="-35.3" font-family="Times,serif" font-size="14.00">label :character varying</text>
<text text-anchor="start" x="233.825" y="-21.3" font-family="Times,serif" font-size="14.00">created_at :timestamp without time zone</text>
<text text-anchor="start" x="233.825" y="-7.3" font-family="Times,serif" font-size="14.00">id :integer</text>
</g>
<!-- AqmeshDatum -->
<g id="node3" class="node"><title>AqmeshDatum</title>
<path fill="none" stroke="black" d="M237.825,-249.5C237.825,-249.5 461.55,-249.5 461.55,-249.5 467.55,-249.5 473.55,-255.5 473.55,-261.5 473.55,-261.5 473.55,-477.5 473.55,-477.5 473.55,-483.5 467.55,-489.5 461.55,-489.5 461.55,-489.5 237.825,-489.5 237.825,-489.5 231.825,-489.5 225.825,-483.5 225.825,-477.5 225.825,-477.5 225.825,-261.5 225.825,-261.5 225.825,-255.5 231.825,-249.5 237.825,-249.5"/>
<text text-anchor="middle" x="349.688" y="-474.3" font-family="Times,serif" font-size="14.00">AqmeshDatum</text>
<polyline fill="none" stroke="black" points="225.825,-467.5 473.55,-467.5 "/>
<text text-anchor="start" x="233.825" y="-452.3" font-family="Times,serif" font-size="14.00">station_id :integer</text>
<text text-anchor="start" x="233.825" y="-438.3" font-family="Times,serif" font-size="14.00">timestamp :character varying</text>
<text text-anchor="start" x="233.825" y="-424.3" font-family="Times,serif" font-size="14.00">display_type :character varying</text>
<text text-anchor="start" x="233.825" y="-410.3" font-family="Times,serif" font-size="14.00">battery :double precision</text>
<text text-anchor="start" x="233.825" y="-396.3" font-family="Times,serif" font-size="14.00">particle_protocol :character varying</text>
<text text-anchor="start" x="233.825" y="-382.3" font-family="Times,serif" font-size="14.00">gas_protocol :character varying</text>
<text text-anchor="start" x="233.825" y="-368.3" font-family="Times,serif" font-size="14.00">P1 :character varying</text>
<text text-anchor="start" x="233.825" y="-354.3" font-family="Times,serif" font-size="14.00">P2 :character varying</text>
<text text-anchor="start" x="233.825" y="-340.3" font-family="Times,serif" font-size="14.00">P3 :character varying</text>
<text text-anchor="start" x="233.825" y="-326.3" font-family="Times,serif" font-size="14.00">T1 :character varying</text>
<text text-anchor="start" x="233.825" y="-312.3" font-family="Times,serif" font-size="14.00">T2 :character varying</text>
<text text-anchor="start" x="233.825" y="-298.3" font-family="Times,serif" font-size="14.00">T3 :character varying</text>
<text text-anchor="start" x="233.825" y="-284.3" font-family="Times,serif" font-size="14.00">created_at :timestamp without time zone</text>
<text text-anchor="start" x="233.825" y="-270.3" font-family="Times,serif" font-size="14.00">updated_at :timestamp without time zone</text>
<text text-anchor="start" x="233.825" y="-256.3" font-family="Times,serif" font-size="14.00">id :integer</text>
</g>
<!-- AqmeshDatum&#45;&gt;AqmeshChannel -->
<g id="edge1" class="edge"><title>AqmeshDatum&#45;&gt;AqmeshChannel</title>
<path fill="none" stroke="#78972a" d="M349.688,-241.413C349.688,-235.27 349.688,-229.118 349.688,-223.01"/>
<ellipse fill="none" stroke="#78972a" cx="349.688" cy="-245.457" rx="4" ry="4"/>
<polygon fill="#78972a" stroke="#78972a" points="349.688,-222.782 354.188,-212.782 349.688,-217.782 349.688,-212.782 349.688,-212.782 349.688,-212.782 349.688,-217.782 345.188,-212.782 349.688,-222.782 349.688,-222.782"/>
</g>
<!-- Grab -->
<g id="node4" class="node"><title>Grab</title>
<polygon fill="none" stroke="black" points="491.688,-873.5 491.688,-917.5 545.688,-917.5 545.688,-873.5 491.688,-873.5"/>
<text text-anchor="middle" x="518.681" y="-902.3" font-family="Times,serif" font-size="14.00">Grab</text>
<polyline fill="none" stroke="black" points="491.688,-895.5 545.674,-895.5 "/>
<text text-anchor="middle" x="518.681" y="-880.3" font-family="Times,serif" font-size="14.00"> </text>
</g>
<!-- PrepareDataChart -->
<g id="node5" class="node"><title>PrepareDataChart</title>
<polygon fill="none" stroke="black" points="563.546,-873.5 563.546,-917.5 679.829,-917.5 679.829,-873.5 563.546,-873.5"/>
<text text-anchor="middle" x="621.688" y="-902.3" font-family="Times,serif" font-size="14.00">PrepareDataChart</text>
<polyline fill="none" stroke="black" points="563.546,-895.5 679.829,-895.5 "/>
<text text-anchor="middle" x="621.688" y="-880.3" font-family="Times,serif" font-size="14.00"> </text>
</g>
<!-- Sensor -->
<g id="node6" class="node"><title>Sensor</title>
<path fill="none" stroke="black" d="M709.825,-845.5C709.825,-845.5 933.55,-845.5 933.55,-845.5 939.55,-845.5 945.55,-851.5 945.55,-857.5 945.55,-857.5 945.55,-933.5 945.55,-933.5 945.55,-939.5 939.55,-945.5 933.55,-945.5 933.55,-945.5 709.825,-945.5 709.825,-945.5 703.825,-945.5 697.825,-939.5 697.825,-933.5 697.825,-933.5 697.825,-857.5 697.825,-857.5 697.825,-851.5 703.825,-845.5 709.825,-845.5"/>
<text text-anchor="middle" x="821.688" y="-930.3" font-family="Times,serif" font-size="14.00">Sensor</text>
<polyline fill="none" stroke="black" points="697.825,-923.5 945.55,-923.5 "/>
<text text-anchor="start" x="705.825" y="-908.3" font-family="Times,serif" font-size="14.00">id :integer</text>
<text text-anchor="start" x="705.825" y="-894.3" font-family="Times,serif" font-size="14.00">name :character varying</text>
<text text-anchor="start" x="705.825" y="-880.3" font-family="Times,serif" font-size="14.00">label :character varying</text>
<text text-anchor="start" x="705.825" y="-866.3" font-family="Times,serif" font-size="14.00">created_at :timestamp without time zone</text>
<text text-anchor="start" x="705.825" y="-852.3" font-family="Times,serif" font-size="14.00">updated_at :timestamp without time zone</text>
</g>
<!-- Server -->
<g id="node7" class="node"><title>Server</title>
<path fill="none" stroke="black" d="M237.825,-845.5C237.825,-845.5 461.55,-845.5 461.55,-845.5 467.55,-845.5 473.55,-851.5 473.55,-857.5 473.55,-857.5 473.55,-933.5 473.55,-933.5 473.55,-939.5 467.55,-945.5 461.55,-945.5 461.55,-945.5 237.825,-945.5 237.825,-945.5 231.825,-945.5 225.825,-939.5 225.825,-933.5 225.825,-933.5 225.825,-857.5 225.825,-857.5 225.825,-851.5 231.825,-845.5 237.825,-845.5"/>
<text text-anchor="middle" x="349.688" y="-930.3" font-family="Times,serif" font-size="14.00">Server</text>
<polyline fill="none" stroke="black" points="225.825,-923.5 473.55,-923.5 "/>
<text text-anchor="start" x="233.825" y="-908.3" font-family="Times,serif" font-size="14.00">id :integer</text>
<text text-anchor="start" x="233.825" y="-894.3" font-family="Times,serif" font-size="14.00">name :character varying</text>
<text text-anchor="start" x="233.825" y="-880.3" font-family="Times,serif" font-size="14.00">created_at :timestamp without time zone</text>
<text text-anchor="start" x="233.825" y="-866.3" font-family="Times,serif" font-size="14.00">updated_at :timestamp without time zone</text>
<text text-anchor="start" x="233.825" y="-852.3" font-family="Times,serif" font-size="14.00">number :integer</text>
</g>
<!-- Station -->
<g id="node8" class="node"><title>Station</title>
<path fill="none" stroke="black" d="M237.825,-526.5C237.825,-526.5 461.55,-526.5 461.55,-526.5 467.55,-526.5 473.55,-532.5 473.55,-538.5 473.55,-538.5 473.55,-740.5 473.55,-740.5 473.55,-746.5 467.55,-752.5 461.55,-752.5 461.55,-752.5 237.825,-752.5 237.825,-752.5 231.825,-752.5 225.825,-746.5 225.825,-740.5 225.825,-740.5 225.825,-538.5 225.825,-538.5 225.825,-532.5 231.825,-526.5 237.825,-526.5"/>
<text text-anchor="middle" x="349.688" y="-737.3" font-family="Times,serif" font-size="14.00">Station</text>
<polyline fill="none" stroke="black" points="225.825,-730.5 473.55,-730.5 "/>
<text text-anchor="start" x="233.825" y="-715.3" font-family="Times,serif" font-size="14.00">country :character varying</text>
<text text-anchor="start" x="233.825" y="-701.3" font-family="Times,serif" font-size="14.00">name :character varying</text>
<text text-anchor="start" x="233.825" y="-687.3" font-family="Times,serif" font-size="14.00">serial_number :character varying</text>
<text text-anchor="start" x="233.825" y="-673.3" font-family="Times,serif" font-size="14.00">server_id :integer</text>
<text text-anchor="start" x="233.825" y="-659.3" font-family="Times,serif" font-size="14.00">type :character varying</text>
<text text-anchor="start" x="233.825" y="-645.3" font-family="Times,serif" font-size="14.00">active :boolean</text>
<text text-anchor="start" x="233.825" y="-631.3" font-family="Times,serif" font-size="14.00">external :boolean</text>
<text text-anchor="start" x="233.825" y="-617.3" font-family="Times,serif" font-size="14.00">latitude :double precision</text>
<text text-anchor="start" x="233.825" y="-603.3" font-family="Times,serif" font-size="14.00">longitude :double precision</text>
<text text-anchor="start" x="233.825" y="-589.3" font-family="Times,serif" font-size="14.00">created_at :timestamp without time zone</text>
<text text-anchor="start" x="233.825" y="-575.3" font-family="Times,serif" font-size="14.00">updated_at :timestamp without time zone</text>
<text text-anchor="start" x="233.825" y="-561.3" font-family="Times,serif" font-size="14.00">number :integer</text>
<text text-anchor="start" x="233.825" y="-547.3" font-family="Times,serif" font-size="14.00">city :character varying</text>
<text text-anchor="start" x="233.825" y="-533.3" font-family="Times,serif" font-size="14.00">id :integer</text>
</g>
<!-- Server&#45;&gt;Station -->
<g id="edge2" class="edge"><title>Server&#45;&gt;Station</title>
<path fill="none" stroke="#59ca8e" d="M349.688,-836.965C349.688,-814.922 349.688,-788.847 349.688,-763.019"/>
<ellipse fill="none" stroke="#59ca8e" cx="349.688" cy="-841.225" rx="4" ry="4"/>
<polygon fill="#59ca8e" stroke="#59ca8e" points="349.688,-762.757 354.188,-752.756 349.688,-757.757 349.688,-752.757 349.688,-752.757 349.688,-752.757 349.688,-757.757 345.188,-752.757 349.688,-762.757 349.688,-762.757"/>
</g>
<!-- Station&#45;&gt;AqmeshDatum -->
<g id="edge3" class="edge"><title>Station&#45;&gt;AqmeshDatum</title>
<path fill="none" stroke="#1c0c6e" d="M349.688,-518.175C349.688,-512.161 349.688,-506.109 349.688,-500.07"/>
<ellipse fill="none" stroke="#1c0c6e" cx="349.688" cy="-522.397" rx="4" ry="4"/>
<polygon fill="#1c0c6e" stroke="#1c0c6e" points="349.688,-499.927 354.188,-489.927 349.688,-494.927 349.688,-489.927 349.688,-489.927 349.688,-489.927 349.688,-494.927 345.188,-489.927 349.688,-499.927 349.688,-499.927"/>
</g>
<!-- Unit -->
<g id="node9" class="node"><title>Unit</title>
<path fill="none" stroke="black" d="M975.825,-845.5C975.825,-845.5 1199.55,-845.5 1199.55,-845.5 1205.55,-845.5 1211.55,-851.5 1211.55,-857.5 1211.55,-857.5 1211.55,-933.5 1211.55,-933.5 1211.55,-939.5 1205.55,-945.5 1199.55,-945.5 1199.55,-945.5 975.825,-945.5 975.825,-945.5 969.825,-945.5 963.825,-939.5 963.825,-933.5 963.825,-933.5 963.825,-857.5 963.825,-857.5 963.825,-851.5 969.825,-845.5 975.825,-845.5"/>
<text text-anchor="middle" x="1087.69" y="-930.3" font-family="Times,serif" font-size="14.00">Unit</text>
<polyline fill="none" stroke="black" points="963.825,-923.5 1211.55,-923.5 "/>
<text text-anchor="start" x="971.825" y="-908.3" font-family="Times,serif" font-size="14.00">id :integer</text>
<text text-anchor="start" x="971.825" y="-894.3" font-family="Times,serif" font-size="14.00">name :character varying</text>
<text text-anchor="start" x="971.825" y="-880.3" font-family="Times,serif" font-size="14.00">unit :character varying</text>
<text text-anchor="start" x="971.825" y="-866.3" font-family="Times,serif" font-size="14.00">created_at :timestamp without time zone</text>
<text text-anchor="start" x="971.825" y="-852.3" font-family="Times,serif" font-size="14.00">updated_at :timestamp without time zone</text>
</g>
<!-- User -->
<g id="node10" class="node"><title>User</title>
<path fill="none" stroke="black" d="M1241.05,-789.5C1241.05,-789.5 1536.32,-789.5 1536.32,-789.5 1542.32,-789.5 1548.32,-795.5 1548.32,-801.5 1548.32,-801.5 1548.32,-989.5 1548.32,-989.5 1548.32,-995.5 1542.32,-1001.5 1536.32,-1001.5 1536.32,-1001.5 1241.05,-1001.5 1241.05,-1001.5 1235.05,-1001.5 1229.05,-995.5 1229.05,-989.5 1229.05,-989.5 1229.05,-801.5 1229.05,-801.5 1229.05,-795.5 1235.05,-789.5 1241.05,-789.5"/>
<text text-anchor="middle" x="1388.69" y="-986.3" font-family="Times,serif" font-size="14.00">User</text>
<polyline fill="none" stroke="black" points="1229.05,-979.5 1548.32,-979.5 "/>
<text text-anchor="start" x="1237.05" y="-964.3" font-family="Times,serif" font-size="14.00">updated_at :timestamp without time zone</text>
<text text-anchor="start" x="1237.05" y="-950.3" font-family="Times,serif" font-size="14.00">email :character varying</text>
<text text-anchor="start" x="1237.05" y="-936.3" font-family="Times,serif" font-size="14.00">encrypted_password :character varying</text>
<text text-anchor="start" x="1237.05" y="-922.3" font-family="Times,serif" font-size="14.00">reset_password_token :character varying</text>
<text text-anchor="start" x="1237.05" y="-908.3" font-family="Times,serif" font-size="14.00">reset_password_sent_at :timestamp without time zone</text>
<text text-anchor="start" x="1237.05" y="-894.3" font-family="Times,serif" font-size="14.00">remember_created_at :timestamp without time zone</text>
<text text-anchor="start" x="1237.05" y="-880.3" font-family="Times,serif" font-size="14.00">sign_in_count :integer</text>
<text text-anchor="start" x="1237.05" y="-866.3" font-family="Times,serif" font-size="14.00">current_sign_in_at :timestamp without time zone</text>
<text text-anchor="start" x="1237.05" y="-852.3" font-family="Times,serif" font-size="14.00">last_sign_in_at :timestamp without time zone</text>
<text text-anchor="start" x="1237.05" y="-838.3" font-family="Times,serif" font-size="14.00">current_sign_in_ip :inet</text>
<text text-anchor="start" x="1237.05" y="-824.3" font-family="Times,serif" font-size="14.00">last_sign_in_ip :inet</text>
<text text-anchor="start" x="1237.05" y="-810.3" font-family="Times,serif" font-size="14.00">created_at :timestamp without time zone</text>
<text text-anchor="start" x="1237.05" y="-796.3" font-family="Times,serif" font-size="14.00">id :integer</text>
</g>
</g>
</svg>
