<?xml version="1.0" encoding="UTF-8" standalone="no"?>
<!DOCTYPE svg PUBLIC "-//W3C//DTD SVG 1.1//EN"
 "http://www.w3.org/Graphics/SVG/1.1/DTD/svg11.dtd">
<!-- Generated by graphviz version 2.38.0 (20140413.2041)
 -->
<!-- Title: models_diagram Pages: 1 -->
<svg width="736pt" height="297pt"
 viewBox="0.00 0.00 735.69 297.00" xmlns="http://www.w3.org/2000/svg" xmlns:xlink="http://www.w3.org/1999/xlink">
<g id="graph0" class="graph" transform="scale(1 1) rotate(0) translate(4 293)">
<title>models_diagram</title>
<polygon fill="none" stroke="none" points="-4,4 -4,-293 731.688,-293 731.688,4 -4,4"/>
<!-- _diagram_info -->
<g id="node1" class="node"><title>_diagram_info</title>
<text text-anchor="start" x="8" y="-274.6" font-family="Times,serif" font-size="13.00">Models diagram</text>
<text text-anchor="start" x="8" y="-261.6" font-family="Times,serif" font-size="13.00">Date: Sep 03 2016 &#45; 15:08</text>
<text text-anchor="start" x="8" y="-248.6" font-family="Times,serif" font-size="13.00">Migration version: 20160903072940</text>
<text text-anchor="start" x="8" y="-235.6" font-family="Times,serif" font-size="13.00">Generated by RailRoady 1.5.1</text>
<text text-anchor="start" x="8" y="-222.6" font-family="Times,serif" font-size="13.00">http://railroady.prestonlee.com</text>
</g>
<!-- AqmeshChannel -->
<g id="node2" class="node"><title>AqmeshChannel</title>
<ellipse fill="none" stroke="black" cx="258.688" cy="-18" rx="69.1064" ry="18"/>
<text text-anchor="middle" x="258.688" y="-13.8" font-family="Times,serif" font-size="14.00">AqmeshChannel</text>
</g>
<!-- AqmeshDatum -->
<g id="node3" class="node"><title>AqmeshDatum</title>
<ellipse fill="none" stroke="black" cx="258.688" cy="-90" rx="63.8028" ry="18"/>
<text text-anchor="middle" x="258.688" y="-85.8" font-family="Times,serif" font-size="14.00">AqmeshDatum</text>
</g>
<!-- AqmeshDatum&#45;&gt;AqmeshChannel -->
<g id="edge1" class="edge"><title>AqmeshDatum&#45;&gt;AqmeshChannel</title>
<path fill="none" stroke="#1caa0c" d="M258.688,-63.6398C258.688,-58.0629 258.688,-52.1319 258.688,-46.4761"/>
<ellipse fill="none" stroke="#1caa0c" cx="258.688" cy="-67.6966" rx="4" ry="4"/>
<polygon fill="#1caa0c" stroke="#1caa0c" points="258.688,-46.1043 263.188,-36.1043 258.688,-41.1043 258.688,-36.1043 258.688,-36.1043 258.688,-36.1043 258.688,-41.1043 254.188,-36.1044 258.688,-46.1043 258.688,-46.1043"/>
</g>
<!-- Grab -->
<g id="node4" class="node"><title>Grab</title>
<polygon fill="none" stroke="black" points="363.688,-270.5 309.688,-270.5 309.688,-234.5 363.688,-234.5 363.688,-270.5"/>
<text text-anchor="middle" x="336.688" y="-248.3" font-family="Times,serif" font-size="14.00">Grab</text>
</g>
<!-- PrepareDataChart -->
<g id="node5" class="node"><title>PrepareDataChart</title>
<polygon fill="none" stroke="black" points="497.971,-270.5 381.404,-270.5 381.404,-234.5 497.971,-234.5 497.971,-270.5"/>
<text text-anchor="middle" x="439.688" y="-248.3" font-family="Times,serif" font-size="14.00">PrepareDataChart</text>
</g>
<!-- Sensor -->
<g id="node6" class="node"><title>Sensor</title>
<ellipse fill="none" stroke="black" cx="549.688" cy="-252.5" rx="34.3614" ry="18"/>
<text text-anchor="middle" x="549.688" y="-248.3" font-family="Times,serif" font-size="14.00">Sensor</text>
</g>
<!-- Server -->
<g id="node7" class="node"><title>Server</title>
<ellipse fill="none" stroke="black" cx="258.688" cy="-252.5" rx="33.3752" ry="18"/>
<text text-anchor="middle" x="258.688" y="-248.3" font-family="Times,serif" font-size="14.00">Server</text>
</g>
<!-- Station -->
<g id="node8" class="node"><title>Station</title>
<ellipse fill="none" stroke="black" cx="258.688" cy="-162" rx="35.3303" ry="18"/>
<text text-anchor="middle" x="258.688" y="-157.8" font-family="Times,serif" font-size="14.00">Station</text>
</g>
<!-- Server&#45;&gt;Station -->
<g id="edge2" class="edge"><title>Server&#45;&gt;Station</title>
<path fill="none" stroke="#baa755" d="M258.688,-226.189C258.688,-214.971 258.688,-201.752 258.688,-190.311"/>
<ellipse fill="none" stroke="#baa755" cx="258.688" cy="-230.436" rx="4" ry="4"/>
<polygon fill="#baa755" stroke="#baa755" points="258.688,-190.011 263.188,-180.011 258.688,-185.011 258.688,-180.011 258.688,-180.011 258.688,-180.011 258.688,-185.011 254.188,-180.011 258.688,-190.011 258.688,-190.011"/>
</g>
<!-- Station&#45;&gt;AqmeshDatum -->
<g id="edge3" class="edge"><title>Station&#45;&gt;AqmeshDatum</title>
<path fill="none" stroke="#319c0e" d="M258.688,-135.64C258.688,-130.063 258.688,-124.132 258.688,-118.476"/>
<ellipse fill="none" stroke="#319c0e" cx="258.688" cy="-139.697" rx="4" ry="4"/>
<polygon fill="#319c0e" stroke="#319c0e" points="258.688,-118.104 263.188,-108.104 258.688,-113.104 258.688,-108.104 258.688,-108.104 258.688,-108.104 258.688,-113.104 254.188,-108.104 258.688,-118.104 258.688,-118.104"/>
</g>
<!-- Unit -->
<g id="node9" class="node"><title>Unit</title>
<ellipse fill="none" stroke="black" cx="628.688" cy="-252.5" rx="27" ry="18"/>
<text text-anchor="middle" x="628.688" y="-248.3" font-family="Times,serif" font-size="14.00">Unit</text>
</g>
<!-- User -->
<g id="node10" class="node"><title>User</title>
<ellipse fill="none" stroke="black" cx="700.688" cy="-252.5" rx="27" ry="18"/>
<text text-anchor="middle" x="700.688" y="-248.3" font-family="Times,serif" font-size="14.00">User</text>
</g>
</g>
</svg>
