<?xml version="1.0" encoding="UTF-8" standalone="no"?>
<!DOCTYPE svg PUBLIC "-//W3C//DTD SVG 1.1//EN"
 "http://www.w3.org/Graphics/SVG/1.1/DTD/svg11.dtd">
<!-- Generated by graphviz version 2.38.0 (20140413.2041)
 -->
<!-- Title: models_diagram Pages: 1 -->
<svg width="664pt" height="297pt"
 viewBox="0.00 0.00 663.69 297.00" xmlns="http://www.w3.org/2000/svg" xmlns:xlink="http://www.w3.org/1999/xlink">
<g id="graph0" class="graph" transform="scale(1 1) rotate(0) translate(4 293)">
<title>models_diagram</title>
<polygon fill="none" stroke="none" points="-4,4 -4,-293 659.688,-293 659.688,4 -4,4"/>
<!-- _diagram_info -->
<g id="node1" class="node"><title>_diagram_info</title>
<text text-anchor="start" x="8" y="-274.6" font-family="Times,serif" font-size="13.00">Models diagram</text>
<text text-anchor="start" x="8" y="-261.6" font-family="Times,serif" font-size="13.00">Date: Sep 03 2016 &#45; 16:07</text>
<text text-anchor="start" x="8" y="-248.6" font-family="Times,serif" font-size="13.00">Migration version: 20160903084559</text>
<text text-anchor="start" x="8" y="-235.6" font-family="Times,serif" font-size="13.00">Generated by RailRoady 1.5.1</text>
<text text-anchor="start" x="8" y="-222.6" font-family="Times,serif" font-size="13.00">http://railroady.prestonlee.com</text>
</g>
<!-- AqmeshChannel -->
<g id="node2" class="node"><title>AqmeshChannel</title>
<ellipse fill="none" stroke="black" cx="324.688" cy="-18" rx="69.1064" ry="18"/>
<text text-anchor="middle" x="324.688" y="-13.8" font-family="Times,serif" font-size="14.00">AqmeshChannel</text>
</g>
<!-- AqmeshDatum -->
<g id="node3" class="node"><title>AqmeshDatum</title>
<ellipse fill="none" stroke="black" cx="324.688" cy="-90" rx="63.8028" ry="18"/>
<text text-anchor="middle" x="324.688" y="-85.8" font-family="Times,serif" font-size="14.00">AqmeshDatum</text>
</g>
<!-- AqmeshDatum&#45;&gt;AqmeshChannel -->
<g id="edge1" class="edge"><title>AqmeshDatum&#45;&gt;AqmeshChannel</title>
<path fill="none" stroke="#542061" d="M324.688,-63.6398C324.688,-58.0629 324.688,-52.1319 324.688,-46.4761"/>
<ellipse fill="none" stroke="#542061" cx="324.688" cy="-67.6966" rx="4" ry="4"/>
<polygon fill="#542061" stroke="#542061" points="324.688,-46.1043 329.188,-36.1043 324.688,-41.1043 324.688,-36.1043 324.688,-36.1043 324.688,-36.1043 324.688,-41.1043 320.188,-36.1044 324.688,-46.1043 324.688,-46.1043"/>
</g>
<!-- Grab -->
<g id="node4" class="node"><title>Grab</title>
<polygon fill="none" stroke="black" points="363.688,-270.5 309.688,-270.5 309.688,-234.5 363.688,-234.5 363.688,-270.5"/>
<text text-anchor="middle" x="336.688" y="-248.3" font-family="Times,serif" font-size="14.00">Grab</text>
</g>
<!-- PrepareDataChart -->
<g id="node5" class="node"><title>PrepareDataChart</title>
<polygon fill="none" stroke="black" points="497.971,-270.5 381.404,-270.5 381.404,-234.5 497.971,-234.5 497.971,-270.5"/>
<text text-anchor="middle" x="439.688" y="-248.3" font-family="Times,serif" font-size="14.00">PrepareDataChart</text>
</g>
<!-- Role -->
<g id="node6" class="node"><title>Role</title>
<ellipse fill="none" stroke="black" cx="106.688" cy="-162" rx="27" ry="18"/>
<text text-anchor="middle" x="106.688" y="-157.8" font-family="Times,serif" font-size="14.00">Role</text>
</g>
<!-- RoleGroup -->
<g id="node7" class="node"><title>RoleGroup</title>
<ellipse fill="none" stroke="black" cx="193.688" cy="-90" rx="49.3119" ry="18"/>
<text text-anchor="middle" x="193.688" y="-85.8" font-family="Times,serif" font-size="14.00">RoleGroup</text>
</g>
<!-- Role&#45;&gt;RoleGroup -->
<g id="edge3" class="edge"><title>Role&#45;&gt;RoleGroup</title>
<path fill="none" stroke="#11b0e0" d="M129.937,-142.294C141.07,-133.336 154.48,-122.546 166.123,-113.178"/>
<ellipse fill="none" stroke="#11b0e0" cx="126.579" cy="-144.996" rx="4.00002" ry="4.00002"/>
<polygon fill="#11b0e0" stroke="#11b0e0" points="166.44,-112.924 177.052,-110.161 170.335,-109.789 174.231,-106.655 174.231,-106.655 174.231,-106.655 170.335,-109.789 171.41,-103.149 166.44,-112.924 166.44,-112.924"/>
</g>
<!-- User -->
<g id="node12" class="node"><title>User</title>
<ellipse fill="none" stroke="black" cx="99.6877" cy="-90" rx="27" ry="18"/>
<text text-anchor="middle" x="99.6877" y="-85.8" font-family="Times,serif" font-size="14.00">User</text>
</g>
<!-- Role&#45;&gt;User -->
<g id="edge2" class="edge"><title>Role&#45;&gt;User</title>
<path fill="none" stroke="#d483ba" d="M104.152,-135.64C103.594,-130.063 103.001,-124.132 102.435,-118.476"/>
<ellipse fill="none" stroke="#d483ba" cx="104.559" cy="-139.716" rx="4" ry="4"/>
<polygon fill="#d483ba" stroke="#d483ba" points="102.393,-118.055 105.876,-107.657 101.896,-113.08 101.398,-108.104 101.398,-108.104 101.398,-108.104 101.896,-113.08 96.9205,-108.552 102.393,-118.055 102.393,-118.055"/>
</g>
<!-- Sensor -->
<g id="node8" class="node"><title>Sensor</title>
<ellipse fill="none" stroke="black" cx="549.688" cy="-252.5" rx="34.3614" ry="18"/>
<text text-anchor="middle" x="549.688" y="-248.3" font-family="Times,serif" font-size="14.00">Sensor</text>
</g>
<!-- Server -->
<g id="node9" class="node"><title>Server</title>
<ellipse fill="none" stroke="black" cx="258.688" cy="-252.5" rx="33.3752" ry="18"/>
<text text-anchor="middle" x="258.688" y="-248.3" font-family="Times,serif" font-size="14.00">Server</text>
</g>
<!-- Station -->
<g id="node10" class="node"><title>Station</title>
<ellipse fill="none" stroke="black" cx="258.688" cy="-162" rx="35.3303" ry="18"/>
<text text-anchor="middle" x="258.688" y="-157.8" font-family="Times,serif" font-size="14.00">Station</text>
</g>
<!-- Server&#45;&gt;Station -->
<g id="edge4" class="edge"><title>Server&#45;&gt;Station</title>
<path fill="none" stroke="#160956" d="M258.688,-226.189C258.688,-214.971 258.688,-201.752 258.688,-190.311"/>
<ellipse fill="none" stroke="#160956" cx="258.688" cy="-230.436" rx="4" ry="4"/>
<polygon fill="#160956" stroke="#160956" points="258.688,-190.011 263.188,-180.011 258.688,-185.011 258.688,-180.011 258.688,-180.011 258.688,-180.011 258.688,-185.011 254.188,-180.011 258.688,-190.011 258.688,-190.011"/>
</g>
<!-- Station&#45;&gt;AqmeshDatum -->
<g id="edge5" class="edge"><title>Station&#45;&gt;AqmeshDatum</title>
<path fill="none" stroke="#a98ede" d="M278.838,-139.629C286.149,-131.874 294.457,-123.063 301.974,-115.09"/>
<ellipse fill="none" stroke="#a98ede" cx="276.079" cy="-142.554" rx="4.00002" ry="4.00002"/>
<polygon fill="#a98ede" stroke="#a98ede" points="302.301,-114.743 312.436,-110.554 305.731,-111.105 309.162,-107.467 309.162,-107.467 309.162,-107.467 305.731,-111.105 305.887,-104.38 302.301,-114.743 302.301,-114.743"/>
</g>
<!-- Station&#45;&gt;RoleGroup -->
<g id="edge6" class="edge"><title>Station&#45;&gt;RoleGroup</title>
<path fill="none" stroke="#48f597" d="M238.573,-139.338C231.416,-131.631 223.317,-122.908 215.988,-115.015"/>
<ellipse fill="none" stroke="#48f597" cx="241.54" cy="-142.534" rx="4.00002" ry="4.00002"/>
<polygon fill="#48f597" stroke="#48f597" points="215.783,-114.795 212.276,-104.405 212.381,-111.131 208.979,-107.467 208.979,-107.467 208.979,-107.467 212.381,-111.131 205.681,-110.529 215.783,-114.795 215.783,-114.795"/>
</g>
<!-- Unit -->
<g id="node11" class="node"><title>Unit</title>
<ellipse fill="none" stroke="black" cx="628.688" cy="-252.5" rx="27" ry="18"/>
<text text-anchor="middle" x="628.688" y="-248.3" font-family="Times,serif" font-size="14.00">Unit</text>
</g>
</g>
</svg>
