<?xml version="1.0" encoding="UTF-8" standalone="no"?>
<!DOCTYPE svg PUBLIC "-//W3C//DTD SVG 1.1//EN"
 "http://www.w3.org/Graphics/SVG/1.1/DTD/svg11.dtd">
<!-- Generated by graphviz version 2.38.0 (20140413.2041)
 -->
<!-- Title: models_diagram Pages: 1 -->
<svg width="969pt" height="153pt"
 viewBox="0.00 0.00 968.69 153.00" xmlns="http://www.w3.org/2000/svg" xmlns:xlink="http://www.w3.org/1999/xlink">
<g id="graph0" class="graph" transform="scale(1 1) rotate(0) translate(4 149)">
<title>models_diagram</title>
<polygon fill="none" stroke="none" points="-4,4 -4,-149 964.688,-149 964.688,4 -4,4"/>
<!-- _diagram_info -->
<g id="node1" class="node"><title>_diagram_info</title>
<text text-anchor="start" x="8" y="-130.6" font-family="Times,serif" font-size="13.00">Models diagram</text>
<text text-anchor="start" x="8" y="-117.6" font-family="Times,serif" font-size="13.00">Date: Sep 03 2016 &#45; 12:20</text>
<text text-anchor="start" x="8" y="-104.6" font-family="Times,serif" font-size="13.00">Migration version: 20160803125755</text>
<text text-anchor="start" x="8" y="-91.6" font-family="Times,serif" font-size="13.00">Generated by RailRoady 1.5.1</text>
<text text-anchor="start" x="8" y="-78.6" font-family="Times,serif" font-size="13.00">http://railroady.prestonlee.com</text>
</g>
<!-- AqmeshChannel -->
<g id="node2" class="node"><title>AqmeshChannel</title>
<ellipse fill="none" stroke="black" cx="288.688" cy="-18" rx="69.1064" ry="18"/>
<text text-anchor="middle" x="288.688" y="-13.8" font-family="Times,serif" font-size="14.00">AqmeshChannel</text>
</g>
<!-- AqmeshDatum -->
<g id="node3" class="node"><title>AqmeshDatum</title>
<ellipse fill="none" stroke="black" cx="288.688" cy="-108.5" rx="63.8028" ry="18"/>
<text text-anchor="middle" x="288.688" y="-104.3" font-family="Times,serif" font-size="14.00">AqmeshDatum</text>
</g>
<!-- AqmeshDatum&#45;&gt;AqmeshChannel -->
<g id="edge1" class="edge"><title>AqmeshDatum&#45;&gt;AqmeshChannel</title>
<path fill="none" stroke="#5faf6a" d="M288.688,-82.189C288.688,-70.9711 288.688,-57.7517 288.688,-46.3113"/>
<ellipse fill="none" stroke="#5faf6a" cx="288.688" cy="-86.4363" rx="4" ry="4"/>
<polygon fill="#5faf6a" stroke="#5faf6a" points="288.688,-46.0113 293.188,-36.0113 288.688,-41.0113 288.688,-36.0113 288.688,-36.0113 288.688,-36.0113 288.688,-41.0113 284.188,-36.0113 288.688,-46.0113 288.688,-46.0113"/>
</g>
<!-- Grab -->
<g id="node4" class="node"><title>Grab</title>
<polygon fill="none" stroke="black" points="424.688,-126.5 370.688,-126.5 370.688,-90.5 424.688,-90.5 424.688,-126.5"/>
<text text-anchor="middle" x="397.688" y="-104.3" font-family="Times,serif" font-size="14.00">Grab</text>
</g>
<!-- PrepareDataChart -->
<g id="node5" class="node"><title>PrepareDataChart</title>
<polygon fill="none" stroke="black" points="558.971,-126.5 442.404,-126.5 442.404,-90.5 558.971,-90.5 558.971,-126.5"/>
<text text-anchor="middle" x="500.688" y="-104.3" font-family="Times,serif" font-size="14.00">PrepareDataChart</text>
</g>
<!-- Sensor -->
<g id="node6" class="node"><title>Sensor</title>
<ellipse fill="none" stroke="black" cx="610.688" cy="-108.5" rx="34.3614" ry="18"/>
<text text-anchor="middle" x="610.688" y="-104.3" font-family="Times,serif" font-size="14.00">Sensor</text>
</g>
<!-- Server -->
<g id="node7" class="node"><title>Server</title>
<ellipse fill="none" stroke="black" cx="695.688" cy="-108.5" rx="33.3752" ry="18"/>
<text text-anchor="middle" x="695.688" y="-104.3" font-family="Times,serif" font-size="14.00">Server</text>
</g>
<!-- Station -->
<g id="node8" class="node"><title>Station</title>
<ellipse fill="none" stroke="black" cx="781.688" cy="-108.5" rx="35.3303" ry="18"/>
<text text-anchor="middle" x="781.688" y="-104.3" font-family="Times,serif" font-size="14.00">Station</text>
</g>
<!-- Unit -->
<g id="node9" class="node"><title>Unit</title>
<ellipse fill="none" stroke="black" cx="861.688" cy="-108.5" rx="27" ry="18"/>
<text text-anchor="middle" x="861.688" y="-104.3" font-family="Times,serif" font-size="14.00">Unit</text>
</g>
<!-- User -->
<g id="node10" class="node"><title>User</title>
<ellipse fill="none" stroke="black" cx="933.688" cy="-108.5" rx="27" ry="18"/>
<text text-anchor="middle" x="933.688" y="-104.3" font-family="Times,serif" font-size="14.00">User</text>
</g>
</g>
</svg>
